<svg xmlns="http://www.w3.org/2000/svg" viewBox="0 0 56.39 55.21"><defs><style>.cls-1{fill:#2057a6;}</style></defs><g id="Layer_2" data-name="Layer 2"><g id="Layer_1-2" data-name="Layer 1"><path class="cls-1" d="M23.46,51.15a4.49,4.49,0,0,0,2.67-1.7,1.66,1.66,0,0,0,.24-1,4.39,4.39,0,0,0-1.19-2.33,15.47,15.47,0,0,0-5.78-3.81c-.53-.22-1.11-.35-1.67-.52l-.07.16A11,11,0,0,0,20,45.21a16.42,16.42,0,0,0,4.7,2.95l1.44.69,0,.13c-.59,0-1.17-.11-1.76-.11a33.62,33.62,0,0,0-4.14.05,10.51,10.51,0,0,0-4.63,2s-.08.11-.15.19a3.3,3.3,0,0,0,.45.17A15.48,15.48,0,0,0,23.46,51.15Z"/><path class="cls-1" d="M35.76,45.74a11.38,11.38,0,0,0,3-3.94c-.36.06-.58.08-.79.14a16.28,16.28,0,0,0-6.25,3.58A5.7,5.7,0,0,0,30,48.15a1.45,1.45,0,0,0,.3,1.47A5.35,5.35,0,0,0,33,51.21a16.39,16.39,0,0,0,6.12.38,15.13,15.13,0,0,0,1.75-.37.92.92,0,0,0,0-.16,10.27,10.27,0,0,0-5.09-2.18c-1.54-.12-3.11,0-4.66.06-.3,0-.59,0-.89,0a2.78,2.78,0,0,1,.77-.49A21.29,21.29,0,0,0,35.76,45.74Z"/><path class="cls-1" d="M35.15,47.45c1.91,1.92,8.12,2.3,11,.68C43.87,46.26,37.93,45.89,35.15,47.45Z"/><path class="cls-1" d="M19,48.64a7.16,7.16,0,0,0,2.28-1.23c-3.86-1.27-7.56-1.45-11.11.66a1.11,1.11,0,0,1,0,.17c.76.18,1.51.39,2.28.53A13.06,13.06,0,0,0,19,48.64Z"/><path class="cls-1" d="M12.64,45.65A7.17,7.17,0,0,0,15.43,45c-2.46-2.19-8.81-3.28-11-1.84,1.16.53,2.23,1.07,3.34,1.51A11.84,11.84,0,0,0,12.64,45.65Z"/><path class="cls-1" d="M11.83,38.24a13.21,13.21,0,0,0,3.1,5.47,7,7,0,0,0,2.17,1.48c.13-3.11-3.25-8.47-6-9.43C11.37,36.63,11.56,37.45,11.83,38.24Z"/><path class="cls-1" d="M51.91,43.13c-2.57-1.37-9.28-.17-11,2,.63.16,1.2.35,1.79.45a10.69,10.69,0,0,0,5.88-.85C49.67,44.24,50.75,43.68,51.91,43.13Z"/><path class="cls-1" d="M43.74,42.42c4.36-.22,6.93-3,9.45-6.06C50.2,36.18,45,39.5,43.74,42.42Z"/><path class="cls-1" d="M3.58,36.92c.67.75,1.3,1.52,2,2.21a11.47,11.47,0,0,0,4.78,3,5,5,0,0,0,2.23.22c-2.36-3.28-5.23-5.59-9.47-6C3.32,36.57,3.44,36.76,3.58,36.92Z"/><path class="cls-1" d="M39.21,45.12c2.41-.53,5.9-6.12,5.84-9.34C42.26,37,38.86,42.44,39.21,45.12Z"/><path class="cls-1" d="M46.57,38c2.48-3.26,2.06-6.83,1.36-10.56C46,29.5,45.18,35.57,46.57,38Z"/><path class="cls-1" d="M9.76,37.91c1.34-2.59.49-9-1.35-10.41A16.78,16.78,0,0,0,8,34.22,7.6,7.6,0,0,0,9.76,37.91Z"/><path class="cls-1" d="M51.27,16.5a14.94,14.94,0,0,0-1.09-4.86,10.66,10.66,0,0,0-.07,9.6A7.49,7.49,0,0,0,51.27,16.5Z"/><path class="cls-1" d="M8.6,16.3c1.91-2.84,2.64-6.74,1.42-9.51-.25.48-.5.91-.7,1.36A12.27,12.27,0,0,0,8,14.1,5.9,5.9,0,0,0,8.6,16.3Z"/><path class="cls-1" d="M6.26,21.27c1.26-3.26,1.56-6.41-.11-9.61a13.25,13.25,0,0,0-1,7A5.61,5.61,0,0,0,6.26,21.27Z"/><path class="cls-1" d="M47.71,16.24c1.37-2.51.24-6.69-1.47-9.4C45.08,9.11,46,14.67,47.71,16.24Z"/><path class="cls-1" d="M51,25.35c2-.81,4-5.48,3.73-8.77C52.16,18.39,50.81,22.24,51,25.35Z"/><path class="cls-1" d="M8.22,19.47c2.7-.64,6.34-4.37,6.62-6.77C12,13.45,8.3,17.22,8.22,19.47Z"/><path class="cls-1" d="M5.36,25.38c-.07-3.48-1-6.52-3.75-8.84C1.13,19.41,3.22,24.36,5.36,25.38Z"/><path class="cls-1" d="M56.39,30c-2.55.1-6.93,3.66-7.49,6.05C52.54,35.39,54.51,32.81,56.39,30Z"/><path class="cls-1" d="M41.46,12.7c.25,2.37,4.48,6.67,6.62,6.73C47.78,16.55,44.06,13.68,41.46,12.7Z"/><path class="cls-1" d="M2.73,33.56A8.13,8.13,0,0,0,6.47,35.8c.3.08.6.12,1,.18C6.63,33.41,2.19,29.85,0,30c0,.08.06.15.1.22A15.74,15.74,0,0,0,2.73,33.56Z"/><path class="cls-1" d="M50.16,31.61c2.8-1.11,4.52-5.44,4.8-8.19C51.85,25.15,50.22,29.14,50.16,31.61Z"/><path class="cls-1" d="M50,28.9c.6-3.65-1.24-6.34-3.36-9C46,22.6,47.84,27.65,50,28.9Z"/><path class="cls-1" d="M16.76,6c-2.71,2-5.25,4-5.69,7.75C13.62,12.82,17,8.24,16.76,6Z"/><path class="cls-1" d="M45.23,13.68C44.8,10,42.26,8,39.49,5.93,39.65,8.77,42.9,13.14,45.23,13.68Z"/><path class="cls-1" d="M6.15,31.64c.25-2.54-2.5-7.18-4.81-8.19,0,.05,0,.09,0,.13a13.8,13.8,0,0,0,2.57,6.25A5.86,5.86,0,0,0,6.15,31.64Z"/><path class="cls-1" d="M6.37,28.92c2.25-1.71,4.21-7,3.29-9C7.61,22.59,5.72,25.26,6.37,28.92Z"/><path class="cls-1" d="M22.5,55.21a1.25,1.25,0,0,0,.55-.15,14.88,14.88,0,0,0,1.84-1.3,5.24,5.24,0,0,0,1.79-2.94c-.42.32-.81.63-1.21.92-.87.63-1.77,1.23-2.61,1.9a3.31,3.31,0,0,0-.76,1C21.88,55,22.06,55.23,22.5,55.21Z"/><path class="cls-1" d="M33.83,55.19c.39.1.59-.21.38-.55a4.1,4.1,0,0,0-.91-1.11c-1.19-.92-2.43-1.78-3.71-2.71a7.7,7.7,0,0,0,.28.85,6.93,6.93,0,0,0,2.48,2.88A4.89,4.89,0,0,0,33.83,55.19Z"/><path class="cls-1" d="M15.58,36.69a19,19,0,0,0,5.72.58c3-.16,5.92-.43,8.88-.73a55,55,0,0,1,8.41-.46l1.76.09a20.38,20.38,0,0,0-2.86-.57c-.43-.06-.56-.21-.55-.63,0-1.58,0-3.15,0-4.73a.72.72,0,0,0-.34-.68c-.45-.28-.87-.6-1.31-.9L33.4,27.37l-.15.06v8h-.19a5,5,0,0,1-.06-.56q0-6.18-.06-12.36a.86.86,0,0,0-.38-.76c-.71-.5-1.39-1-2.09-1.55-.91-.68-1.83-1.34-2.74-2l-.16,0V35.89h-.28c-.07-5.78,0-11.55-.11-17.42a3.5,3.5,0,0,0-.35.28c-1.35,1.39-2.71,2.79-4,4.2a1.34,1.34,0,0,0-.34.8c0,2.38-.06,4.76-.08,7.14,0,1.7,0,3.41,0,5.11a2.22,2.22,0,0,1-.1.5l-.23,0v-9.3c-1.16.82-2.19,1.56-3.23,2.28a.82.82,0,0,0-.39.76c0,1.94,0,3.89,0,5.84,0,.66,0,.66-.65.65ZM28,18.74c.3.19.52.31.72.46,1.2.89,2.38,1.81,3.59,2.68.37.27.31.61.31.95,0,1.74,0,3.47,0,5.21,0,2.3,0,4.6,0,6.9,0,.49-.18.6-.69.44.19-.65-.23-.92-.68-1.21-.86-.55-1.7-1.15-2.62-1.78a10.37,10.37,0,0,0,0,1.13.66.66,0,0,0,.28.4c.58.41,1.17.79,1.76,1.18a1.25,1.25,0,0,1,.38.35c-1,.27-1.54-.79-2.44-1,0,.28,0,.54,0,.81s.09.53-.29.54-.24-.32-.24-.5c0-3.91-.06-7.82-.09-11.73,0-1.38,0-2.76,0-4.15C27.91,19.23,28,19,28,18.74Z"/><path class="cls-1" d="M31.19,32.23a8.27,8.27,0,0,1-1-.68l-1.59-1.07a4.19,4.19,0,0,0,0,.66c0,.25,0,.61.2.73,1,.7,2,1.35,3,2.05C32,33.16,31.94,32.57,31.19,32.23Z"/><path class="cls-1" d="M29.21,30.23c.64.36,1.24.81,1.85,1.22.23.15.48.29.73.44.2-1,.14-1.11-.58-1.6L29.35,29c-.23-.16-.46-.3-.77-.5a5.31,5.31,0,0,1,0,.57A1,1,0,0,0,29.21,30.23Z"/><path class="cls-1" d="M29.46,28.42a4.17,4.17,0,0,1,.56.37l1.77,1.15c.2-1,.16-1.12-.64-1.64l-.59-.41-1.88-1.27A1.3,1.3,0,0,0,29.46,28.42Z"/><path class="cls-1" d="M28.79,26c1,.68,2,1.31,3,2,.17-.76.09-1.33-.64-1.63a2.18,2.18,0,0,1-.31-.22l-2.22-1.49a5.54,5.54,0,0,0,0,.73C28.65,25.58,28.66,25.88,28.79,26Z"/><path class="cls-1" d="M28.88,24.06c.95.65,1.91,1.27,2.91,1.94a1.3,1.3,0,0,0-.65-1.64A10.19,10.19,0,0,1,30,23.6c-.42-.27-.83-.56-1.35-.92C28.73,23.23,28.41,23.73,28.88,24.06Z"/><path class="cls-1" d="M29.23,22.32l.84.56L31.75,24c.17-.72.06-1.2-.58-1.53a12.69,12.69,0,0,1-1.31-.9c-.36-.24-.73-.46-1.12-.71C28.52,21.76,28.58,21.89,29.23,22.32Z"/><path class="cls-1" d="M27.42,15.17a1.42,1.42,0,0,1,.91,0,5.39,5.39,0,0,0,6.61-2.88A5.32,5.32,0,0,0,33,5.66a.94.94,0,0,1-.46-.78,5.35,5.35,0,0,0-10.67.72,1,1,0,0,1-.32.84,5.1,5.1,0,0,0-1.45,5A5.35,5.35,0,0,0,27.42,15.17Zm.63-1.05a.57.57,0,0,1-.44,0,4.39,4.39,0,0,1-2.19-3.76A5.65,5.65,0,0,0,30,10a4.54,4.54,0,0,1-1.47,3.79A2.22,2.22,0,0,1,28.05,14.12ZM25.41,9.2a4.63,4.63,0,0,1,1.88-2.92.63.63,0,0,1,.55,0,4.5,4.5,0,0,1,2,2.66c.09.28,0,.41-.25.53a5.06,5.06,0,0,1-2.41.66c-.44-.08-.87-.18-1.32-.23S25.32,9.62,25.41,9.2Zm-.65.13A3.76,3.76,0,0,1,23.09,7.6c-.66-1.35-.62-1.31.73-1.83a4.13,4.13,0,0,1,3,.07A5.69,5.69,0,0,0,24.76,9.33Zm3.47-3.61a7.43,7.43,0,0,1,1.13-.3,4.2,4.2,0,0,1,2.22.23c.15.07.33.3.31.43a4.43,4.43,0,0,1-1.24,2.55s-.09,0-.21.06A6,6,0,0,0,28.23,5.72Zm6.37,3a4.68,4.68,0,0,1-1.9,5.29c-1.27.91-3.41,1-4.09.46l.38-.42a5.29,5.29,0,0,0,1.66-4.25.66.66,0,0,1,.13-.47,5.54,5.54,0,0,0,1.76-3.26A4.29,4.29,0,0,1,34.6,8.76ZM24.83,1.3a4.71,4.71,0,0,1,5.25.29,4.54,4.54,0,0,1,1.85,3.48A4.66,4.66,0,0,0,28.73,5a3.88,3.88,0,0,1-2.54,0,4.73,4.73,0,0,0-3.13.41,1.69,1.69,0,0,1-.31.13.43.43,0,0,1-.17,0A4.53,4.53,0,0,1,24.83,1.3ZM22,6.91a10,10,0,0,0,.87,1.51,18.94,18.94,0,0,0,1.5,1.47c.11.1.27.22.28.34a5.61,5.61,0,0,0,2.17,4.13.89.89,0,0,1,.16.22c-1,.75-3.85.62-5.4-1.36A4.7,4.7,0,0,1,22,6.91Z"/></g></g></svg>