<svg xmlns="http://www.w3.org/2000/svg" xmlns:xlink="http://www.w3.org/1999/xlink" viewBox="0 0 407.24 89.12"><defs><style>.cls-1{fill:url(#linear-gradient);}.cls-2{fill:#fff;}</style><linearGradient id="linear-gradient" x1="203.62" y1="89.12" x2="203.62" gradientUnits="userSpaceOnUse"><stop offset="0" stop-color="#337fc9"/><stop offset="1" stop-color="#2057a6"/></linearGradient></defs><g id="Layer_2" data-name="Layer 2"><g id="Layer_1-2" data-name="Layer 1"><rect class="cls-1" width="407.24" height="89.12" rx="44.56"/><path class="cls-2" d="M171.42,46.71a17.12,17.12,0,0,1-5.25,12.81,17.53,17.53,0,0,1-12.8,5.15H153a17.66,17.66,0,0,1-12.86-5.15,17.26,17.26,0,0,1-5.2-12.81V40.89h5.88v5.19q0,5.84,3.15,9.3c2.15,2.46,5.25,3.67,9.19,3.67q11.42,0,12.38-12.23H151.69c0-11.13,6.4-17.22,17.69-17.22v5.46a15.77,15.77,0,0,0-6.62,1.1,9.21,9.21,0,0,0-4.3,4.94h13ZM151,76.27h-5.77V70.44H151Zm9.92,0H155.1V70.44h5.77Z"/><path class="cls-2" d="M188.48,32.12V51.28c0,9.45-4.14,13.39-13.17,13.39v-5c4.88,0,7.29-2.42,7.29-7.46V32.12Z"/><path class="cls-2" d="M209.37,56H202.5A7.92,7.92,0,0,1,196,53.22a10.17,10.17,0,0,1-2.1-6.82V22.1h5.82V44c0,2.57.58,4.25,1.68,5,.79.57,2.31.89,4.52.89h3.46Z"/><path class="cls-2" d="M219.13,56h-11.6V50h11.6Z"/><path class="cls-2" d="M260,56H217.88V50h30.33a13,13,0,0,0-2.72-8.35,11,11,0,0,0-9-4,11.55,11.55,0,0,0-4.41,1,12.82,12.82,0,0,0-4.73,3.31c-.57-1.1-1.52-2.63-2.83-4.62a19.89,19.89,0,0,1,5.62-3.73A17.27,17.27,0,0,1,237,32.12a17.9,17.9,0,0,1,9.56,2.52c4.78,2.94,7.4,8,7.87,15.33H260Zm-20.21,11.5H234V61.57h5.78Z"/><path class="cls-2" d="M263.75,27.29H258V21.47h5.77Zm10.08,19.16c0,6.35-2.94,9.5-8.77,9.5h-6.19V50h4.93c1.95,0,3.15-.58,3.73-1.73a11.51,11.51,0,0,0,.42-3.78V32.12h5.88Zm-.16-19.16H267.9V21.47h5.77Z"/></g></g></svg>