<svg xmlns="http://www.w3.org/2000/svg" xmlns:xlink="http://www.w3.org/1999/xlink" viewBox="0 0 407.24 89.12"><defs><style>.cls-1{fill:url(#linear-gradient);}.cls-2{fill:#fff;}</style><linearGradient id="linear-gradient" x1="203.62" y1="89.12" x2="203.62" gradientUnits="userSpaceOnUse"><stop offset="0" stop-color="#ff9138"/><stop offset="1" stop-color="#ffbf1e"/></linearGradient></defs><g id="Layer_2" data-name="Layer 2"><g id="Layer_1-2" data-name="Layer 1"><rect class="cls-1" width="407.24" height="89.12" rx="44.56"/><path class="cls-2" d="M173.94,50v6c-6.45,0-8.29-1-10.7-4.62-1.68,8.19-8.72,13.34-17.27,13.34a17.9,17.9,0,0,1-18.06-18.22V40.57h5.88v5.2c0,8.14,4.72,13.23,12.33,13.23,6.83,0,12-4.52,12-9.87,0-3.26-1.94-5.56-5.3-5.56a6.05,6.05,0,0,0-.95,0V38.26h2.31a11.23,11.23,0,0,1,10.4,6.25c2.15,3.94,4.2,5.46,7.19,5.46Zm-30,26.3h-5.78V70.44h5.78Zm9.92,0h-5.77V70.44h5.77Z"/><path class="cls-2" d="M196.67,56H172.42V50h5.46a3.57,3.57,0,0,0,3.52-1.79,9.16,9.16,0,0,0,.63-4V32.12h5.82V43.88c0,3.1-.42,5.09-1.26,6.09h10.08Zm-8.82-28.66h-5.77V21.47h5.77Z"/><path class="cls-2" d="M236.35,56H195V50h28.82A12.76,12.76,0,0,0,221,41.62a11.15,11.15,0,0,0-9.08-4H199.77L210.11,22.1h7l-7.09,10h2.58a18.19,18.19,0,0,1,9.6,2.52c4.78,2.94,7.4,8,7.87,15.33h6.3Z"/><path class="cls-2" d="M234.94,50h4.3c3,0,4.46-2,4.46-6.19V32.12h5.93V43.57c0,3.09-.31,5.09-.94,6.08V50h5.46c3,0,4.46-1.94,4.46-5.83v-12h5.93V43.57c0,3.41-.42,5.56-1.21,6.4h5.72c3,0,4.47-1.94,4.47-5.77V32.12h5.93V43.46c0,7.56-4.2,12.49-10.19,12.49H234.94Z"/></g></g></svg>