<svg xmlns="http://www.w3.org/2000/svg" viewBox="0 0 152.32 38.88"><defs><style>.cls-1{fill:#2057a6;}</style></defs><g id="Layer_2" data-name="Layer 2"><g id="Layer_1-2" data-name="Layer 1"><path class="cls-1" d="M139.35,10.62a2.48,2.48,0,0,1-.55,1.7,2.11,2.11,0,0,1-1.66.63,2.31,2.31,0,0,1-1.68-.61,2.72,2.72,0,0,1-.66-1.89V5.86h-2.58v4.59a2.49,2.49,0,0,1-.23,1.13,1.93,1.93,0,0,1-.58.71,2.2,2.2,0,0,1-.79.37,3.64,3.64,0,0,1-.85.1h-1.88V5.86H125.3v6.9h-5.66V10.89a8.73,8.73,0,0,0-.24-2.11,3.55,3.55,0,0,0-.83-1.6,4.06,4.06,0,0,0-1.65-1.07,6.94,6.94,0,0,0-2.2-.32h-5.46L112.13.35h-2.78l-3,5.44a4.42,4.42,0,0,0,.29,1.47,4.28,4.28,0,0,0,.6,1.1H115a2.09,2.09,0,0,1,.91.2,1.84,1.84,0,0,1,.66.52,2,2,0,0,1,.38.73,3.52,3.52,0,0,1,.12,1v2H103.53V.35h-2.59v15h28.83a5,5,0,0,0,2-.42,5.2,5.2,0,0,0,1.66-1.17,3.46,3.46,0,0,0,.73.86,3.82,3.82,0,0,0,.9.55,4.38,4.38,0,0,0,1,.28,6.23,6.23,0,0,0,1.06.09,4.65,4.65,0,0,0,3.6-1.29,5.71,5.71,0,0,0,1.19-4V3.64h-2.58Z"/><path class="cls-1" d="M72.33,15.35V2.94h1.2V.35H69.74V12.76H66.22c0-.18.07-.37.1-.57a6.08,6.08,0,0,0,0-.61,5.73,5.73,0,0,0-.43-2.24,5.42,5.42,0,0,0-1.2-1.79,5.68,5.68,0,0,0-1.8-1.2,5.52,5.52,0,0,0-2.19-.43,5.42,5.42,0,0,0-2.16.44,5.65,5.65,0,0,0-1.75,1.21,5.82,5.82,0,0,0-1.19,1.8,5.58,5.58,0,0,0-.43,2.21,6.08,6.08,0,0,0,0,.61,3.39,3.39,0,0,0,.1.57H51.91V4.94H49.32v7.82H45.38V11a8.82,8.82,0,0,0-.24-2.12,3.55,3.55,0,0,0-.83-1.6,4,4,0,0,0-1.65-1.06,6.66,6.66,0,0,0-2.2-.33H34.82V4.94H32.23v7.82H29.05l0-7.82H26.14a8.64,8.64,0,0,0-2.55.36,6,6,0,0,0-2,1A4.69,4.69,0,0,0,20.27,8a5,5,0,0,0-.47,2.19,5.25,5.25,0,0,0,.49,2.37,4.45,4.45,0,0,0,1.35,1.62,5.78,5.78,0,0,0,2,.93,10.34,10.34,0,0,0,2.48.29h.3a2.18,2.18,0,0,1-.23.78,1.17,1.17,0,0,1-.46.45,1.85,1.85,0,0,1-.7.2,6.58,6.58,0,0,1-.94,0,8.25,8.25,0,0,1-1.3-.11,9.86,9.86,0,0,1-1.4-.35L21.59,19l.76.2.64.13a6.17,6.17,0,0,0,.62.08c.21,0,.44,0,.68,0a6.5,6.5,0,0,0,2.11-.3,3.65,3.65,0,0,0,1.43-.83A3.46,3.46,0,0,0,28.66,17,6.42,6.42,0,0,0,29,15.35H56.7a6,6,0,0,0,1.81,1.29,5.36,5.36,0,0,0,2.22.47A5.79,5.79,0,0,0,63,16.65a5.55,5.55,0,0,0,1.84-1.3h7.49ZM26.48,12.76h-1.1a4,4,0,0,1-1.17-.16,3,3,0,0,1-.95-.5,2.38,2.38,0,0,1-.64-.83,2.65,2.65,0,0,1-.23-1.13,2.26,2.26,0,0,1,.25-1.08,2.63,2.63,0,0,1,.66-.82,3.13,3.13,0,0,1,1-.53,3.49,3.49,0,0,1,1.11-.18h1.1Zm16.31,0h-8V8.43h5.9a2,2,0,0,1,.91.21,1.74,1.74,0,0,1,.66.52,2,2,0,0,1,.38.73,3.47,3.47,0,0,1,.12,1Zm20.74,0a2.73,2.73,0,0,1-.65.95,3,3,0,0,1-1,.62,3.1,3.1,0,0,1-1.18.22,3,3,0,0,1-1.17-.23,3.32,3.32,0,0,1-.93-.63,3,3,0,0,1-.62-.94,3.27,3.27,0,0,1,0-2.36,3,3,0,0,1,.61-1,2.79,2.79,0,0,1,.93-.65,2.83,2.83,0,0,1,1.18-.24A3.23,3.23,0,0,1,62,8.74a2.88,2.88,0,0,1,1.59,1.6,3.16,3.16,0,0,1,.22,1.2A2.9,2.9,0,0,1,63.53,12.73Z"/><path class="cls-1" d="M91.33,4.27a1.8,1.8,0,0,0,2.13,0,1.23,1.23,0,0,0,.45-1,1.24,1.24,0,0,0-.43-1,1.74,1.74,0,0,0-2.17,0,1.24,1.24,0,0,0-.43,1A1.23,1.23,0,0,0,91.33,4.27Z"/><path class="cls-1" d="M97.41,17.66V6.27H94.82v8.8H93.34a8.46,8.46,0,0,1-1.56-.14,2.67,2.67,0,0,1-1.2-.56,2,2,0,0,1-.6-.95A4.86,4.86,0,0,1,89.8,12V6.27H87.22v6.05a8.39,8.39,0,0,0,.27,2.15,3.63,3.63,0,0,0,1,1.68,5.68,5.68,0,0,0,.9.69,4.78,4.78,0,0,0,1.05.47,7.22,7.22,0,0,0,1.25.27,11.42,11.42,0,0,0,1.5.08Z"/><rect class="cls-1" x="145.55" y="0.35" width="2.59" height="15"/><path class="cls-1" d="M147.23,19.4h.93v-.83h-.78a1,1,0,0,1-.78-.24,1,1,0,0,1-.22-.69h2.37V16.26H144.9v.85a2.19,2.19,0,0,0,.62,1.77A2.59,2.59,0,0,0,147.23,19.4Z"/><rect class="cls-1" x="76.67" y="0.35" width="2.59" height="15"/><path class="cls-1" d="M17.67,14.65V4.94H15.08V15a2.49,2.49,0,0,1-.3,1.39,1.27,1.27,0,0,1-1.08.42,3.69,3.69,0,0,1-.58,0,4.12,4.12,0,0,1-.65-.13l.19,2.59a3.58,3.58,0,0,0,.59.12,5.81,5.81,0,0,0,.72.05,4.48,4.48,0,0,0,1.7-.28,2.54,2.54,0,0,0,1.15-.86,3.8,3.8,0,0,0,.65-1.48A10.21,10.21,0,0,0,17.67,14.65Z"/><path class="cls-1" d="M49.47,3a1.69,1.69,0,0,0,1.07.36A1.64,1.64,0,0,0,51.6,3a1.22,1.22,0,0,0,.46-1,1.25,1.25,0,0,0-.44-1,1.72,1.72,0,0,0-2.16,0A1.25,1.25,0,0,0,49,2,1.21,1.21,0,0,0,49.47,3Z"/><path class="cls-1" d="M5.32,2.64a1.54,1.54,0,0,0,1-.34,1.19,1.19,0,0,0,.43-1A1.19,1.19,0,0,0,6.34.36a1.5,1.5,0,0,0-1-.36,1.52,1.52,0,0,0-1,.36,1.19,1.19,0,0,0-.42,1,1.21,1.21,0,0,0,.43,1A1.55,1.55,0,0,0,5.32,2.64Z"/><path class="cls-1" d="M9.33,2.64a1.59,1.59,0,0,0,1-.34,1.21,1.21,0,0,0,.42-1,1.21,1.21,0,0,0-.4-.95,1.53,1.53,0,0,0-1-.36,1.52,1.52,0,0,0-1,.36,1.22,1.22,0,0,0-.41,1,1.21,1.21,0,0,0,.42,1A1.59,1.59,0,0,0,9.33,2.64Z"/><path class="cls-1" d="M10.88,4H8.29v.93H7.92a8.19,8.19,0,0,0-2.67.4,5.87,5.87,0,0,0-2,1.09A4.72,4.72,0,0,0,2,8.07a5.12,5.12,0,0,0-.42,2.08,5.33,5.33,0,0,0,.47,2.3,4.63,4.63,0,0,0,1.31,1.63,5.72,5.72,0,0,0,2,1,9.66,9.66,0,0,0,2.54.31h3ZM8.29,12.76H7.17a3.68,3.68,0,0,1-1.11-.16,3.13,3.13,0,0,1-1-.5,2.63,2.63,0,0,1-.66-.82,2.36,2.36,0,0,1-.25-1.13A2.25,2.25,0,0,1,4.46,9a2.47,2.47,0,0,1,.71-.83,3.37,3.37,0,0,1,1-.51A3.92,3.92,0,0,1,7.3,7.53h1Z"/><polygon class="cls-1" points="1.41 33.6 5.64 33.6 5.64 32.43 1.41 32.43 1.41 28.99 5.88 28.99 5.88 27.81 0 27.81 0 38.7 6.13 38.7 6.13 37.52 1.41 37.52 1.41 33.6"/><path class="cls-1" d="M11.77,32.53c-1.5-.58-2.17-1.08-2.17-2.1,0-.75.57-1.64,2.06-1.64a4.42,4.42,0,0,1,2.07.52l.39-1.15a5.05,5.05,0,0,0-2.41-.53c-2.12,0-3.53,1.26-3.53,3,0,1.53,1.1,2.46,2.88,3.09,1.47.56,2,1.14,2,2.16s-.84,1.86-2.28,1.86A5,5,0,0,1,8.31,37L8,38.17a5.6,5.6,0,0,0,2.78.7c2.57,0,3.81-1.46,3.81-3.14S13.61,33.24,11.77,32.53Z"/><path class="cls-1" d="M24.42,27.81H22.67L19.34,31.9c-.28.35-.57.74-.86,1.16h-.05V27.81H17V38.7h1.4V34.55l1-1.2,3.59,5.35h1.66l-4.25-6.27Z"/><path class="cls-1" d="M29.38,27.81,25.68,38.7h1.45l1.13-3.42h3.87l1.16,3.42H34.8L31.08,27.81Zm-.82,6.37L29.62,31c.21-.67.39-1.33.55-2h0c.17.63.33,1.28.57,2l1.07,3.14Z"/><path class="cls-1" d="M43.8,32.37c0,1.69,0,3,.16,4.48h0a31.6,31.6,0,0,0-2-3.54l-3.5-5.51H37V38.7h1.32V34.05c0-1.81,0-3.12-.11-4.5h.05a35.48,35.48,0,0,0,2,3.64l3.46,5.52h1.42V27.81H43.8Z"/><polygon class="cls-1" points="53.2 33.6 57.43 33.6 57.43 32.43 53.2 32.43 53.2 28.99 57.68 28.99 57.68 27.81 51.79 27.81 51.79 38.7 57.92 38.7 57.92 37.52 53.2 37.52 53.2 33.6"/><polygon class="cls-1" points="61.7 27.81 60.3 27.81 60.3 38.7 66.36 38.7 66.36 37.52 61.7 37.52 61.7 27.81"/><path class="cls-1" d="M76.84,27.81,74.9,33.08a38,38,0,0,0-1.15,3.67h0c-.27-1.13-.65-2.33-1.1-3.67l-1.86-5.27H69L68.19,38.7h1.34L69.82,34c.1-1.63.18-3.46.21-4.82h0c.31,1.3.75,2.7,1.26,4.24l1.77,5.19h1.06l1.93-5.29c.55-1.5,1-2.86,1.37-4.14h0c0,1.36.08,3.19.16,4.71l.28,4.78h1.37l-.68-10.89Z"/><path class="cls-1" d="M84.75,27.81,81,38.7H82.5l1.13-3.42h3.86l1.17,3.42h1.5L86.44,27.81Zm-.83,6.37L85,31c.21-.67.39-1.33.55-2h0c.16.63.32,1.28.57,2l1.06,3.14Z"/><path class="cls-1" d="M99.15,32.37c0,1.69,0,3,.16,4.48h0a31.79,31.79,0,0,0-2-3.54l-3.49-5.51H92.3V38.7h1.32V34.05c0-1.81,0-3.12-.11-4.5h0a37.32,37.32,0,0,0,2,3.64l3.46,5.52h1.43V27.81H99.15Z"/><path class="cls-1" d="M106.75,32.53c-1.5-.58-2.16-1.08-2.16-2.1,0-.75.56-1.64,2-1.64a4.39,4.39,0,0,1,2.07.52l.39-1.15a5.05,5.05,0,0,0-2.41-.53c-2.12,0-3.53,1.26-3.53,3,0,1.53,1.1,2.46,2.88,3.09,1.47.56,2,1.14,2,2.16s-.84,1.86-2.28,1.86a5,5,0,0,1-2.52-.71l-.35,1.18a5.6,5.6,0,0,0,2.78.7c2.57,0,3.81-1.46,3.81-3.14S108.6,33.24,106.75,32.53Z"/><path class="cls-1" d="M116.42,27.63c-2.91,0-5.06,2.26-5.06,5.72,0,3.3,2,5.53,4.9,5.53s5.06-2,5.06-5.74C121.32,29.91,119.4,27.63,116.42,27.63Zm-.08,10.1c-2.21,0-3.48-2.08-3.48-4.41s1.17-4.54,3.5-4.54,3.47,2.26,3.47,4.43C119.83,35.68,118.57,37.73,116.34,37.73Z"/><path class="cls-1" d="M130.28,34.26c0,2.41-1,3.47-2.65,3.47-1.46,0-2.54-1-2.54-3.47V27.81h-1.42v6.42c0,3.38,1.68,4.65,3.91,4.65s4.12-1.37,4.12-4.72V27.81h-1.42Z"/><path class="cls-1" d="M139.35,33.52v-.05a2.86,2.86,0,0,0,2.05-2.78,2.7,2.7,0,0,0-.85-2.07,4.44,4.44,0,0,0-3.16-.89,15.27,15.27,0,0,0-2.7.22V38.7h1.41V34h1.33c1.27.05,1.86.62,2.18,2.12a13.81,13.81,0,0,0,.73,2.6h1.45a18.41,18.41,0,0,1-.84-3A2.71,2.71,0,0,0,139.35,33.52Zm-1.81-.6H136.1v-4a6.05,6.05,0,0,1,1.39-.13c1.49,0,2.51.63,2.51,2C140,32.09,139,32.92,137.54,32.92Z"/><path class="cls-1" d="M148.6,27.81h-1.7L143.2,38.7h1.45l1.14-3.42h3.86l1.16,3.42h1.51Zm-2.52,6.37L147.14,31c.21-.67.39-1.33.55-2h0c.16.63.32,1.28.56,2l1.07,3.14Z"/></g></g></svg>