<svg xmlns="http://www.w3.org/2000/svg" xmlns:xlink="http://www.w3.org/1999/xlink" viewBox="0 0 63.57 63.57"><defs><style>.cls-1{fill:url(#linear-gradient);}.cls-2{fill:#fff;}</style><linearGradient id="linear-gradient" x1="-246.21" y1="55.72" x2="-297.63" y2="4.3" gradientTransform="translate(301.93)" gradientUnits="userSpaceOnUse"><stop offset="0" stop-color="#2057a6"/><stop offset="1" stop-color="#668cc2"/></linearGradient></defs><g id="Layer_2" data-name="Layer 2"><g id="Layer_1-2" data-name="Layer 1"><rect class="cls-1" width="63.57" height="63.57" rx="31.78"/><path class="cls-2" d="M42.29,20.39A14.08,14.08,0,0,0,20.68,38.25l-8.11,8.12a2.65,2.65,0,0,0,3.74,3.75L24.43,42a14.08,14.08,0,0,0,17.86-1.69A14.11,14.11,0,0,0,42.29,20.39ZM15.48,49.29A1.47,1.47,0,1,1,13.4,47.2l8-8c.31.38.64.74,1,1.1a14.53,14.53,0,0,0,1.1,1Zm26-9.81a12.91,12.91,0,1,1,0-18.26A12.86,12.86,0,0,1,41.46,39.48Z"/><path class="cls-2" d="M39.64,23A10.33,10.33,0,0,0,25,23,10.34,10.34,0,1,0,39.64,37.66a10.33,10.33,0,0,0,0-14.62Zm-.82,13.79a9.17,9.17,0,1,1,2.68-6.48A9.15,9.15,0,0,1,38.82,36.83Z"/></g></g></svg>