<svg xmlns="http://www.w3.org/2000/svg" viewBox="0 0 47.79 47.78"><defs><style>.cls-1{fill:#2e62ac;}</style></defs><g id="Layer_2" data-name="Layer 2"><g id="Layer_1-2" data-name="Layer 1"><path class="cls-1" d="M44.31,18.28,41,17.91A16.94,16.94,0,0,0,40.2,16l2.09-2.62A3.91,3.91,0,0,0,42,8.2L39.58,5.79a3.9,3.9,0,0,0-5.21-.29L31.75,7.58a18.78,18.78,0,0,0-1.87-.76L29.5,3.49A3.92,3.92,0,0,0,25.6,0H22.19a3.91,3.91,0,0,0-3.9,3.48l-.37,3.34A16.8,16.8,0,0,0,16,7.58L13.42,5.5a3.9,3.9,0,0,0-5.21.29L5.8,8.2a3.93,3.93,0,0,0-.3,5.22L7.59,16a19.74,19.74,0,0,0-.77,1.87l-3.34.37A3.94,3.94,0,0,0,0,22.19v3.4A3.94,3.94,0,0,0,3.48,29.5l3.34.37a18.86,18.86,0,0,0,.77,1.87L5.5,34.36a3.93,3.93,0,0,0,.3,5.22L8.21,42a3.9,3.9,0,0,0,5.21.29L16,40.2a16.8,16.8,0,0,0,1.88.76l.37,3.33a3.91,3.91,0,0,0,3.9,3.49H25.6a3.92,3.92,0,0,0,3.9-3.48L29.88,41a18.78,18.78,0,0,0,1.87-.76l2.62,2.08A3.9,3.9,0,0,0,39.58,42L42,39.58a3.91,3.91,0,0,0,.3-5.22L40.2,31.74A16.61,16.61,0,0,0,41,29.87l3.34-.37a3.94,3.94,0,0,0,3.48-3.91v-3.4A3.94,3.94,0,0,0,44.31,18.28ZM39.48,28.8a16.49,16.49,0,0,1-1.08,2.63.86.86,0,0,0,.09,1l2.43,3.06a2.19,2.19,0,0,1-.16,2.9l-2.41,2.41a2.19,2.19,0,0,1-2.9.16l-3.06-2.45a.87.87,0,0,0-.94-.08,17.26,17.26,0,0,1-2.66,1.09.89.89,0,0,0-.59.73l-.44,3.89A2.18,2.18,0,0,1,25.6,46H22.19A2.16,2.16,0,0,1,20,44.1l-.45-3.86a.89.89,0,0,0-.6-.77,15.47,15.47,0,0,1-2.62-1.07.89.89,0,0,0-.43-.11.85.85,0,0,0-.54.19l-3.06,2.44a2.19,2.19,0,0,1-2.9-.16L7,38.35a2.18,2.18,0,0,1-.17-2.9l2.45-3.07a.9.9,0,0,0,.08-.94,16.52,16.52,0,0,1-1.09-2.63.87.87,0,0,0-.73-.62l-3.9-.44a2.17,2.17,0,0,1-1.93-2.16v-3.4a2.18,2.18,0,0,1,.55-1.45A2.21,2.21,0,0,1,3.69,20l3.9-.44A.88.88,0,0,0,8.31,19a15.65,15.65,0,0,1,1.1-2.66.9.9,0,0,0-.1-.93L6.87,12.33A2.19,2.19,0,0,1,7,9.43L9.44,7a2.21,2.21,0,0,1,2.9-.16L15.39,9.3a.85.85,0,0,0,.95.09A17.32,17.32,0,0,1,19,8.3a.85.85,0,0,0,.6-.73L20,3.67a2.16,2.16,0,0,1,2.15-1.92H25.6a2.18,2.18,0,0,1,2.16,1.93l.44,3.9a.91.91,0,0,0,.61.73,16.33,16.33,0,0,1,2.63,1.08.89.89,0,0,0,1-.09l3.05-2.44a2.19,2.19,0,0,1,2.9.16l2.4,2.41a2.18,2.18,0,0,1,.17,2.9L38.5,15.38a.85.85,0,0,0-.1,1A17.29,17.29,0,0,1,39.48,19a.87.87,0,0,0,.73.62l3.9.44A2.17,2.17,0,0,1,46,22.19v3.4a2.17,2.17,0,0,1-1.93,2.16l-3.91.44A.88.88,0,0,0,39.48,28.8Z"/><path class="cls-1" d="M23.9,10.55A13.34,13.34,0,1,0,37.24,23.89,13.35,13.35,0,0,0,23.9,10.55Zm0,24.93A11.59,11.59,0,1,1,35.49,23.89,11.6,11.6,0,0,1,23.9,35.48Z"/></g></g></svg>