<svg xmlns="http://www.w3.org/2000/svg" viewBox="0 0 705.39 545.29"><g id="Layer_2" data-name="Layer 2"><g id="Layer_1-2" data-name="Layer 1"><path d="M673,545.29a.42.42,0,0,1-.42-.42V541a.42.42,0,0,1,.84,0v3.88A.42.42,0,0,1,673,545.29Z"/><path d="M657,541.41H598.66a.42.42,0,0,1,0-.84H657a.42.42,0,0,1,0,.84Z"/><path d="M673,545.29H354.63a.42.42,0,0,1,0-.84H672.54V541a.42.42,0,0,1,.84,0v3.88A.42.42,0,0,1,673,545.29Z"/><path d="M705,545.29H352.72a.42.42,0,0,1,0-.84H704.55V541a.42.42,0,0,1,.42-.42.42.42,0,0,1,.42.42v3.88A.42.42,0,0,1,705,545.29Z"/><path d="M350.8,76.45a.42.42,0,0,1-.42-.42V4.3a.42.42,0,0,1,.42-.42.42.42,0,0,1,.42.42V76A.42.42,0,0,1,350.8,76.45Z"/><path d="M354.63,76.45a.42.42,0,0,1-.42-.42V4.3a.42.42,0,0,1,.42-.42.42.42,0,0,1,.42.42V76A.42.42,0,0,1,354.63,76.45Z"/><path d="M705,4.67H673a.42.42,0,1,1,0-.84h31.59V.42A.42.42,0,0,1,705,0a.42.42,0,0,1,.42.42V4.25A.42.42,0,0,1,705,4.67Z"/><path d="M660.15,4.67H598.66a.42.42,0,0,1,0-.84h61.49a.42.42,0,0,1,0,.84Z"/><path d="M594.83,117.08a.42.42,0,0,1-.42-.42V4.67H505.15a.42.42,0,0,1,0-.84h89.68a.42.42,0,0,1,.42.42V116.66A.42.42,0,0,1,594.83,117.08Z"/><path d="M501.32,4.72H354.63a.42.42,0,1,1,0-.84H501.32a.42.42,0,0,1,0,.84Z"/><path d="M669.13,43.13a.42.42,0,0,1-.42-.42v-38H599.08v38a.42.42,0,0,1-.42.42.42.42,0,0,1-.42-.42V4.25a.42.42,0,0,1,.42-.42h70.47a.42.42,0,0,1,.42.42V42.71A.42.42,0,0,1,669.13,43.13Z"/><path d="M705,4.67H673a.42.42,0,1,1,0-.84h31.59V.42A.42.42,0,0,1,705,0a.42.42,0,0,1,.42.42V4.25A.42.42,0,0,1,705,4.67Z"/><path d="M705,4.67a.42.42,0,0,1-.42-.42V.84H352.72a.42.42,0,0,1-.42-.42.42.42,0,0,1,.42-.42H705a.42.42,0,0,1,.42.42V4.25A.42.42,0,0,1,705,4.67Z"/><path d="M513.17,275H467.7a.42.42,0,0,1-.42-.42.42.42,0,0,1,.42-.42h45.47a.42.42,0,0,1,.42.42A.42.42,0,0,1,513.17,275Z"/><path d="M581.06,275H510.9a.42.42,0,0,1-.42-.42.42.42,0,0,1,.42-.42h70.16a.41.41,0,0,1,.42.42A.42.42,0,0,1,581.06,275Z"/><path d="M669.13,275H582.68a.42.42,0,0,1-.42-.42.42.42,0,0,1,.42-.42h86.45a.42.42,0,0,1,.42.42A.42.42,0,0,1,669.13,275Z"/><path d="M705,275H673a.42.42,0,0,1-.42-.42.42.42,0,0,1,.42-.42h32a.42.42,0,0,1,.42.42A.42.42,0,0,1,705,275Z"/><path d="M392.74,180.19H312.69a.42.42,0,0,1,0-.84h80.05a.42.42,0,1,1,0,.84Z"/><path d="M392.74,215H357.51a.12.12,0,0,1-.12-.12.12.12,0,0,1,.12-.12h35.23a.12.12,0,0,1,.12.12A.12.12,0,0,1,392.74,215Z"/><path d="M347.93,215H312.69a.12.12,0,0,1-.12-.12.13.13,0,0,1,.12-.12h35.24a.12.12,0,0,1,.12.12A.12.12,0,0,1,347.93,215Z"/><path d="M392.74,223.59H357.51a.12.12,0,0,1-.12-.12.12.12,0,0,1,.12-.12h35.23a.12.12,0,0,1,.12.12A.12.12,0,0,1,392.74,223.59Z"/><path d="M347.93,223.59H312.69a.12.12,0,0,1-.12-.12.13.13,0,0,1,.12-.12h35.24a.12.12,0,0,1,.12.12A.12.12,0,0,1,347.93,223.59Z"/><path d="M392.74,176.36H312.69a.42.42,0,0,1,0-.84h80.05a.42.42,0,0,1,0,.84Z"/><path d="M392.74,365.59H367.13a.42.42,0,0,1,0-.84h25.61a.42.42,0,1,1,0,.84Z"/><path d="M360.73,363.07H315.27a.42.42,0,1,1,0-.84h45.46a.42.42,0,0,1,0,.84Z"/><path d="M392.74,369.47H312.69a.42.42,0,0,1,0-.84h80.05a.42.42,0,1,1,0,.84Z"/><path d="M367.13,313.72H308.86a.42.42,0,1,1,0-.84h58.27a.42.42,0,1,1,0,.84Z"/><path d="M435,313.72H392.74a.42.42,0,1,1,0-.84H435a.42.42,0,1,1,0,.84Z"/><path d="M505.15,313.72H438.87a.42.42,0,1,1,0-.84h66.28a.42.42,0,1,1,0,.84Z"/><path d="M501.32,317.55H396.57a.42.42,0,0,1,0-.84H501.32a.42.42,0,0,1,0,.84Z"/><path d="M435,277.73a.42.42,0,0,1-.42-.42v-2.72a.42.42,0,0,1,.42-.42.41.41,0,0,1,.42.42v2.72A.42.42,0,0,1,435,277.73Z"/><path d="M435,313.72a.42.42,0,0,1-.42-.42v-4.94a.42.42,0,0,1,.42-.42.42.42,0,0,1,.42.42v4.94A.42.42,0,0,1,435,313.72Z"/><path d="M438.87,279.34a.42.42,0,0,1-.42-.42v-4.33a.41.41,0,0,1,.42-.42.42.42,0,0,1,.42.42v4.33A.42.42,0,0,1,438.87,279.34Z"/><path d="M438.87,313.72a.42.42,0,0,1-.42-.42v-4.94a.42.42,0,0,1,.42-.42.42.42,0,0,1,.42.42v4.94A.42.42,0,0,1,438.87,313.72Z"/><path d="M421.58,313.72h-3.84a.42.42,0,1,1,0-.84h3.84a.42.42,0,0,1,0,.84Z"/><path d="M421.58,317.55h-3.84a.42.42,0,0,1,0-.84h3.84a.42.42,0,0,1,0,.84Z"/><path d="M352.72,80.28h-40a.42.42,0,1,1,0-.84h40a.42.42,0,1,1,0,.84Z"/><path d="M308.86,97.57a.42.42,0,0,1-.42-.42V76a.42.42,0,0,1,.42-.42H350.8a.42.42,0,0,1,0,.84H309.28v20.7A.42.42,0,0,1,308.86,97.57Z"/><path d="M308.86,154.23a.42.42,0,0,1-.42-.42V103.25a.42.42,0,0,1,.42-.42.42.42,0,0,1,.42.42v50.56A.42.42,0,0,1,308.86,154.23Z"/><path d="M312.69,176.36a.42.42,0,0,1-.42-.42V79.86a.42.42,0,0,1,.42-.42.42.42,0,0,1,.42.42v96.08A.42.42,0,0,1,312.69,176.36Z"/><path d="M513.17,275H467.7a.42.42,0,0,1-.42-.42.42.42,0,0,1,.42-.42h45.47a.42.42,0,0,1,.42.42A.42.42,0,0,1,513.17,275Z"/><path d="M581.06,275H510.9a.42.42,0,0,1-.42-.42.42.42,0,0,1,.42-.42h70.16a.41.41,0,0,1,.42.42A.42.42,0,0,1,581.06,275Z"/><path d="M669.13,275H582.68a.42.42,0,0,1-.42-.42.42.42,0,0,1,.42-.42h86.45a.42.42,0,0,1,.42.42A.42.42,0,0,1,669.13,275Z"/><path d="M705,275H673a.42.42,0,0,1-.42-.42.42.42,0,0,1,.42-.42h31.59V169.84a.42.42,0,0,1,.42-.42.42.42,0,0,1,.42.42V274.59A.42.42,0,0,1,705,275Z"/><path d="M669.13,275H582.68a.42.42,0,0,1-.42-.42.42.42,0,0,1,.42-.42h86.45a.42.42,0,0,1,.42.42A.42.42,0,0,1,669.13,275Z"/><path d="M581.06,275H510.9a.42.42,0,0,1-.42-.42.42.42,0,0,1,.42-.42h70.16a.41.41,0,0,1,.42.42A.42.42,0,0,1,581.06,275Z"/><path d="M513.17,275H467.7a.42.42,0,0,1-.42-.42.42.42,0,0,1,.42-.42h45.47a.42.42,0,0,1,.42.42A.42.42,0,0,1,513.17,275Z"/><path d="M701.14,271.12H673a.42.42,0,1,1,0-.83h27.76V173.67a.42.42,0,0,1,.42-.42.42.42,0,0,1,.42.42v97A.41.41,0,0,1,701.14,271.12Z"/><path d="M660.15,271.12H582.68a.42.42,0,1,1,0-.83h77.47a.42.42,0,1,1,0,.83Z"/><path d="M581.06,271.12H510.9a.42.42,0,1,1,0-.83h70.16a.42.42,0,1,1,0,.83Z"/><path d="M513.17,271.12h-74.3a.42.42,0,1,1,0-.83h74.3a.42.42,0,1,1,0,.83Z"/><path d="M701.14,174.09H594.83a.42.42,0,1,1,0-.84H701.14a.42.42,0,1,1,0,.84Z"/><path d="M694.73,170.26H598.66a.42.42,0,0,1,0-.84h96.07a.42.42,0,1,1,0,.84Z"/><path d="M705,170.26h-6.41a.42.42,0,0,1,0-.84H705a.42.42,0,1,1,0,.84Z"/><path d="M594.83,137.6a.42.42,0,0,1-.42-.42V120.54a.42.42,0,0,1,.42-.42.42.42,0,0,1,.42.42v16.64A.42.42,0,0,1,594.83,137.6Z"/><path d="M598.66,137.6a.42.42,0,0,1-.42-.42V46.54a.42.42,0,0,1,.42-.42.42.42,0,0,1,.42.42v90.64A.42.42,0,0,1,598.66,137.6Z"/><path d="M598.66,170.26a.42.42,0,0,1-.42-.42v-3.41h-3.41a.42.42,0,1,1,0-.84h3.83a.42.42,0,0,1,.42.42v3.83A.42.42,0,0,1,598.66,170.26Z"/><path d="M594.83,121H591a.42.42,0,0,1-.42-.42v-3.88a.42.42,0,0,1,.42-.42.42.42,0,0,1,.42.42v3.46h3.41a.42.42,0,1,1,0,.84Z"/><path d="M562.16,121a.42.42,0,0,1-.42-.42v-3.88a.42.42,0,0,1,.84,0v3.88A.42.42,0,0,1,562.16,121Z"/><path d="M594.83,117.08H591a.42.42,0,0,1,0-.84h3.83a.42.42,0,1,1,0,.84Z"/><path d="M562.16,121H501.32a.42.42,0,1,1,0-.84h60.84a.42.42,0,1,1,0,.84Z"/><path d="M562.16,117.08h-57a.42.42,0,0,1-.42-.42V4.25a.42.42,0,1,1,.84,0v112h56.59a.42.42,0,1,1,0,.84Z"/><path d="M501.32,121a.42.42,0,0,1-.42-.42V101a.42.42,0,0,1,.84,0v19.56A.42.42,0,0,1,501.32,121Z"/><path d="M501.32,97.57a.42.42,0,0,1-.42-.42V4.3a.42.42,0,1,1,.84,0V97.15A.42.42,0,0,1,501.32,97.57Z"/><path d="M669.13,43.13H598.66a.42.42,0,0,1,0-.84h70.47a.42.42,0,1,1,0,.84Z"/><path d="M698.56,43.13H673a.42.42,0,0,1,0-.84h25.6a.42.42,0,1,1,0,.84Z"/><path d="M694.73,47H598.66a.42.42,0,0,1,0-.84h96.07a.42.42,0,1,1,0,.84Z"/><path d="M673,43.13a.42.42,0,0,1-.42-.42V4.25a.42.42,0,0,1,.84,0V42.71A.42.42,0,0,1,673,43.13Z"/><path d="M698.56,174.09a.42.42,0,0,1-.42-.42v-131a.42.42,0,0,1,.42-.42.42.42,0,0,1,.42.42v131A.42.42,0,0,1,698.56,174.09Z"/><path d="M694.73,170.26a.42.42,0,0,1-.42-.42V46.54a.42.42,0,0,1,.42-.42.42.42,0,0,1,.42.42v123.3A.42.42,0,0,1,694.73,170.26Z"/><path d="M669.13,268.25a.42.42,0,0,1-.42-.42V264.3a.42.42,0,0,1,.42-.42.42.42,0,0,1,.42.42v3.53A.42.42,0,0,1,669.13,268.25Z"/><path d="M501.32,101.4h-3.83a.42.42,0,0,1,0-.84h3.83a.42.42,0,1,1,0,.84Z"/><path d="M468.66,101.4h-1.92a.42.42,0,0,1,0-.84h1.92a.42.42,0,1,1,0,.84Z"/><path d="M462.86,101.4H396.57a.42.42,0,1,1,0-.84h66.29a.42.42,0,1,1,0,.84Z"/><path d="M392.74,80.28h-40a.42.42,0,1,1,0-.84h40a.42.42,0,0,1,0,.84Z"/><path d="M501.32,97.57h-3.83a.42.42,0,1,1,0-.84h3.83a.42.42,0,1,1,0,.84Z"/><path d="M468.66,97.57H396.57a.42.42,0,1,1,0-.84h72.09a.42.42,0,1,1,0,.84Z"/><path d="M396.57,76.45H354.63a.42.42,0,1,1,0-.84h41.94a.42.42,0,0,1,0,.84Z"/><path d="M392.74,176.36a.42.42,0,0,1-.42-.42V79.86a.42.42,0,0,1,.84,0v96.08A.42.42,0,0,1,392.74,176.36Z"/><path d="M392.74,187.55a.42.42,0,0,1-.42-.42v-7.36a.42.42,0,0,1,.84,0v7.36A.42.42,0,0,1,392.74,187.55Z"/><path d="M501.32,229.49a.42.42,0,0,1-.42-.42V157a.42.42,0,1,1,.84,0v72A.42.42,0,0,1,501.32,229.49Z"/><path d="M505.15,233.37a.42.42,0,0,1-.42-.42V153.21a.42.42,0,0,1,.84,0V233A.42.42,0,0,1,505.15,233.37Z"/><path d="M462.86,154.23H396.57a.42.42,0,1,1,0-.84h66.29a.42.42,0,0,1,0,.84Z"/><path d="M468.66,154.23h-1.92a.42.42,0,1,1,0-.84h1.92a.42.42,0,0,1,0,.84Z"/><path d="M505.15,153.62h-7.66a.42.42,0,1,1,0-.83h7.66a.42.42,0,1,1,0,.83Z"/><path d="M501.32,157.46h-3.83a.42.42,0,0,1-.42-.42.42.42,0,0,1,.42-.42h3.83a.42.42,0,0,1,.42.42A.42.42,0,0,1,501.32,157.46Z"/><path d="M468.66,157.46H396.57a.42.42,0,0,1-.42-.42.42.42,0,0,1,.42-.42h72.09a.42.42,0,0,1,.42.42A.42.42,0,0,1,468.66,157.46Z"/><path d="M501.32,101.4h-3.83a.42.42,0,0,1-.42-.42V97.15a.42.42,0,0,1,.84,0v3.41h3.41a.42.42,0,1,1,0,.84Z"/><path d="M468.66,101.4a.42.42,0,0,1-.42-.42V97.15a.42.42,0,0,1,.42-.42.42.42,0,0,1,.42.42V101A.42.42,0,0,1,468.66,101.4Z"/><path d="M466.74,105.23a.42.42,0,0,1-.42-.42V101a.42.42,0,0,1,.84,0v3.83A.42.42,0,0,1,466.74,105.23Z"/><path d="M466.74,154.23a.42.42,0,0,1-.42-.42V130.47a.42.42,0,1,1,.84,0v23.34A.42.42,0,0,1,466.74,154.23Z"/><path d="M462.86,105.23a.42.42,0,0,1-.42-.42V101a.42.42,0,0,1,.84,0v3.83A.42.42,0,0,1,462.86,105.23Z"/><path d="M462.86,154.23a.42.42,0,0,1-.42-.42V130.47a.42.42,0,0,1,.84,0v23.34A.42.42,0,0,1,462.86,154.23Z"/><path d="M497.49,157.46a.42.42,0,0,1-.42-.42v-3.83a.42.42,0,0,1,.84,0V157A.42.42,0,0,1,497.49,157.46Z"/><path d="M468.66,157.46a.42.42,0,0,1-.42-.42v-3.23a.42.42,0,0,1,.42-.42.42.42,0,0,1,.42.42V157A.42.42,0,0,1,468.66,157.46Z"/><path d="M466.74,105.23h-3.88a.42.42,0,0,1-.42-.42V101a.42.42,0,0,1,.84,0v3.41h3.46a.42.42,0,0,1,.42.42A.42.42,0,0,1,466.74,105.23Z"/><path d="M466.74,130.89h-3.88a.42.42,0,1,1,0-.84h3.88a.42.42,0,0,1,0,.84Z"/><path d="M513.17,271.12h-74.3a.42.42,0,1,1,0-.83h74.3a.42.42,0,1,1,0,.83Z"/><path d="M581.06,271.12H510.9a.42.42,0,1,1,0-.83h70.16a.42.42,0,1,1,0,.83Z"/><path d="M660.15,271.12H582.68a.42.42,0,1,1,0-.83h77.47a.42.42,0,1,1,0,.83Z"/><path d="M705,271.12H673a.42.42,0,1,1,0-.83h32a.42.42,0,1,1,0,.83Z"/><path d="M463.87,271.12h-25a.42.42,0,1,1,0-.83h25a.42.42,0,1,1,0,.83Z"/><path d="M308.86,383.53a.42.42,0,0,1-.42-.42v-23a.42.42,0,0,1,.42-.42.42.42,0,0,1,.42.42v23A.41.41,0,0,1,308.86,383.53Z"/><path d="M312.69,444.38a.42.42,0,0,1-.42-.42V369.05a.42.42,0,0,1,.42-.42.42.42,0,0,1,.42.42V444A.42.42,0,0,1,312.69,444.38Z"/><path d="M513.17,271.12h-74.3a.42.42,0,1,1,0-.83h74.3a.42.42,0,1,1,0,.83Z"/><path d="M581.06,271.12H510.9a.42.42,0,1,1,0-.83h70.16a.42.42,0,1,1,0,.83Z"/><path d="M660.15,271.12H582.68a.42.42,0,1,1,0-.83h77.47a.42.42,0,1,1,0,.83Z"/><path d="M705,375.87a.42.42,0,0,1-.42-.42V271.12H673a.42.42,0,1,1,0-.83h32a.42.42,0,0,1,.42.42V375.45A.42.42,0,0,1,705,375.87Z"/><path d="M669.13,271.12H582.68a.42.42,0,1,1,0-.83h86.45a.42.42,0,1,1,0,.83Z"/><path d="M581.06,271.12H510.9a.42.42,0,1,1,0-.83h70.16a.42.42,0,1,1,0,.83Z"/><path d="M513.17,271.12h-74.3a.42.42,0,1,1,0-.83h74.3a.42.42,0,1,1,0,.83Z"/><path d="M701.14,372a.42.42,0,0,1-.42-.42V275H673a.42.42,0,0,1-.42-.42.42.42,0,0,1,.42-.42h28.18a.42.42,0,0,1,.42.42v97A.42.42,0,0,1,701.14,372Z"/><path d="M669.13,275H582.68a.42.42,0,0,1-.42-.42.42.42,0,0,1,.42-.42h86.45a.42.42,0,0,1,.42.42A.42.42,0,0,1,669.13,275Z"/><path d="M581.06,275H510.9a.42.42,0,0,1-.42-.42.42.42,0,0,1,.42-.42h70.16a.41.41,0,0,1,.42.42A.42.42,0,0,1,581.06,275Z"/><path d="M513.17,275h-74.3a.42.42,0,0,1-.42-.42.41.41,0,0,1,.42-.42h74.3a.42.42,0,0,1,.42.42A.42.42,0,0,1,513.17,275Z"/><path d="M669.13,372h-74.3a.42.42,0,0,1,0-.84h74.3a.42.42,0,1,1,0,.84Z"/><path d="M701.14,372H673a.42.42,0,1,1,0-.84h28.18a.42.42,0,1,1,0,.84Z"/><path d="M694.73,375.87H598.66a.42.42,0,1,1,0-.84h96.07a.42.42,0,1,1,0,.84Z"/><path d="M705,375.87h-6.41a.42.42,0,0,1,0-.84H705a.42.42,0,1,1,0,.84Z"/><path d="M594.83,535.36a.42.42,0,0,1-.42-.42V427.32a.42.42,0,0,1,.42-.42.42.42,0,0,1,.42.42V534.94A.42.42,0,0,1,594.83,535.36Z"/><path d="M594.83,423.91a.42.42,0,0,1-.42-.42V413.16a.41.41,0,0,1,.42-.42.42.42,0,0,1,.42.42v10.33A.42.42,0,0,1,594.83,423.91Z"/><path d="M594.83,384.79a.41.41,0,0,1-.42-.42V371.62a.42.42,0,0,1,.42-.42.42.42,0,0,1,.42.42v12.75A.42.42,0,0,1,594.83,384.79Z"/><path d="M598.66,533.4a.42.42,0,0,1-.42-.42v-30.4a.42.42,0,0,1,.42-.42.42.42,0,0,1,.42.42V533A.42.42,0,0,1,598.66,533.4Z"/><path d="M598.66,499.17a.42.42,0,0,1-.42-.42V413.16a.41.41,0,0,1,.42-.42.42.42,0,0,1,.42.42v85.59A.42.42,0,0,1,598.66,499.17Z"/><path d="M598.66,386.36a.42.42,0,0,1-.42-.42V375.45a.42.42,0,0,1,.42-.42.42.42,0,0,1,.42.42v10.49A.42.42,0,0,1,598.66,386.36Z"/><path d="M591,427.74a.42.42,0,0,1-.42-.42v-3.83a.42.42,0,0,1,.42-.42h3.83a.42.42,0,0,1,0,.84h-3.41v3.41A.42.42,0,0,1,591,427.74Z"/><path d="M562.16,427.74a.42.42,0,0,1-.42-.42v-3.83a.42.42,0,0,1,.84,0v3.83A.42.42,0,0,1,562.16,427.74Z"/><path d="M594.83,427.74H591a.42.42,0,1,1,0-.84h3.83a.42.42,0,0,1,0,.84Z"/><path d="M562.16,423.91H501.32a.42.42,0,0,1,0-.84h60.84a.42.42,0,1,1,0,.84Z"/><path d="M562.16,427.74h-57a.42.42,0,1,1,0-.84h57a.42.42,0,1,1,0,.84Z"/><path d="M501.32,447.9a.42.42,0,0,1-.42-.42v-24a.42.42,0,1,1,.84,0v24A.42.42,0,0,1,501.32,447.9Z"/><path d="M501.32,541.41a.42.42,0,0,1-.42-.42V451.32a.42.42,0,0,1,.84,0V541A.42.42,0,0,1,501.32,541.41Z"/><path d="M669.13,503H598.66a.42.42,0,0,1,0-.84h70.47a.42.42,0,1,1,0,.84Z"/><path d="M698.56,503H673a.42.42,0,1,1,0-.84h25.6a.42.42,0,1,1,0,.84Z"/><path d="M694.73,499.17H598.66a.42.42,0,0,1,0-.84h96.07a.42.42,0,1,1,0,.84Z"/><path d="M698.56,503a.42.42,0,0,1-.42-.42v-131a.42.42,0,0,1,.42-.42.42.42,0,0,1,.42.42v131A.42.42,0,0,1,698.56,503Z"/><path d="M694.73,499.17a.42.42,0,0,1-.42-.42V375.45a.42.42,0,0,1,.42-.42.42.42,0,0,1,.42.42v123.3A.42.42,0,0,1,694.73,499.17Z"/><path d="M673,372a.42.42,0,0,1-.42-.42v-198a.42.42,0,0,1,.84,0v198A.42.42,0,0,1,673,372Z"/><path d="M669.13,366.24a.41.41,0,0,1-.42-.42V355.24a.42.42,0,0,1,.42-.42.42.42,0,0,1,.42.42v10.58A.42.42,0,0,1,669.13,366.24Z"/><path d="M669.13,281.41a.42.42,0,0,1-.42-.42v-3.48a.42.42,0,0,1,.42-.42.42.42,0,0,1,.42.42V281A.42.42,0,0,1,669.13,281.41Z"/><path d="M501.32,447.9h-3.83a.42.42,0,0,1-.42-.42.42.42,0,0,1,.42-.42h3.83a.42.42,0,0,1,.42.42A.42.42,0,0,1,501.32,447.9Z"/><path d="M468.66,444.38h-1.92a.42.42,0,0,1-.42-.42.42.42,0,0,1,.42-.42h1.92a.42.42,0,0,1,.42.42A.42.42,0,0,1,468.66,444.38Z"/><path d="M462.86,444.38H396.57a.42.42,0,0,1-.42-.42.42.42,0,0,1,.42-.42h66.29a.42.42,0,0,1,.42.42A.42.42,0,0,1,462.86,444.38Z"/><path d="M501.32,451.74h-3.83a.42.42,0,0,1-.42-.42.42.42,0,0,1,.42-.42h3.83a.42.42,0,0,1,.42.42A.42.42,0,0,1,501.32,451.74Z"/><path d="M421.58,317.55h-3.84a.42.42,0,0,1,0-.84h3.84a.42.42,0,0,1,0,.84Z"/><path d="M421.58,313.72h-3.84a.42.42,0,1,1,0-.84h3.84a.42.42,0,0,1,0,.84Z"/><path d="M396.57,469.38a.42.42,0,0,1-.42-.42V447.84a.42.42,0,0,1,.42-.42.41.41,0,0,1,.42.42V469A.42.42,0,0,1,396.57,469.38Z"/><path d="M396.57,444.38a.42.42,0,0,1-.42-.42V390.83a.42.42,0,0,1,.42-.42.41.41,0,0,1,.42.42V444A.42.42,0,0,1,396.57,444.38Z"/><path d="M392.74,465.55a.42.42,0,0,1-.42-.42v-74.3a.42.42,0,0,1,.84,0v74.3A.42.42,0,0,1,392.74,465.55Z"/><path d="M396.57,388a.42.42,0,0,1-.42-.42v-7.66a.42.42,0,0,1,.42-.42.42.42,0,0,1,.42.42v7.66A.42.42,0,0,1,396.57,388Z"/><path d="M396.57,383.53a.42.42,0,0,1-.42-.42v-19.2a.42.42,0,0,1,.42-.42.42.42,0,0,1,.42.42v19.2A.41.41,0,0,1,396.57,383.53Z"/><path d="M392.74,444.38a.42.42,0,0,1-.42-.42V369.05a.42.42,0,0,1,.84,0V444A.42.42,0,0,1,392.74,444.38Z"/><path d="M392.74,365.59a.42.42,0,0,1-.42-.42v-1.26a.42.42,0,0,1,.84,0v1.26A.42.42,0,0,1,392.74,365.59Z"/><path d="M501.32,388a.42.42,0,0,1-.42-.42V317.13a.42.42,0,1,1,.84,0V387.6A.42.42,0,0,1,501.32,388Z"/><path d="M505.15,391.25a.42.42,0,0,1-.42-.42V313.3a.42.42,0,1,1,.84,0v77.53A.42.42,0,0,1,505.15,391.25Z"/><path d="M462.86,391.25H396.57a.42.42,0,0,1-.42-.42.42.42,0,0,1,.42-.42h66.29a.42.42,0,0,1,.42.42A.42.42,0,0,1,462.86,391.25Z"/><path d="M468.66,391.25h-1.92a.42.42,0,0,1-.42-.42.42.42,0,0,1,.42-.42h1.92a.42.42,0,0,1,.42.42A.42.42,0,0,1,468.66,391.25Z"/><path d="M505.15,391.25h-7.66a.42.42,0,0,1-.42-.42.42.42,0,0,1,.42-.42h7.66a.42.42,0,0,1,.42.42A.42.42,0,0,1,505.15,391.25Z"/><path d="M501.32,388h-3.83a.42.42,0,0,1,0-.84h3.83a.42.42,0,0,1,0,.84Z"/><path d="M468.66,388H396.57a.42.42,0,0,1,0-.84h72.09a.42.42,0,0,1,0,.84Z"/><path d="M497.49,451.74a.42.42,0,0,1-.42-.42v-3.84a.42.42,0,0,1,.42-.42h3.83a.42.42,0,0,1,.42.42.42.42,0,0,1-.42.42h-3.41v3.42A.42.42,0,0,1,497.49,451.74Z"/><path d="M468.66,448.26a.42.42,0,0,1-.42-.42V444a.41.41,0,0,1,.42-.42.42.42,0,0,1,.42.42v3.88A.42.42,0,0,1,468.66,448.26Z"/><path d="M466.74,444.38a.42.42,0,0,1-.42-.42v-3.84a.42.42,0,0,1,.84,0V444A.42.42,0,0,1,466.74,444.38Z"/><path d="M466.74,414.58a.41.41,0,0,1-.42-.41V390.83a.42.42,0,0,1,.84,0v23.34A.41.41,0,0,1,466.74,414.58Z"/><path d="M462.86,444.38a.42.42,0,0,1-.42-.42v-3.84a.42.42,0,0,1,.84,0V444A.42.42,0,0,1,462.86,444.38Z"/><path d="M462.86,414.58a.41.41,0,0,1-.42-.41V390.83a.42.42,0,0,1,.84,0v23.34A.41.41,0,0,1,462.86,414.58Z"/><path d="M497.49,391.25a.42.42,0,0,1-.42-.42V387.6a.42.42,0,0,1,.84,0v3.23A.42.42,0,0,1,497.49,391.25Z"/><path d="M468.66,391.25a.42.42,0,0,1-.42-.42V387.6a.42.42,0,0,1,.42-.42.42.42,0,0,1,.42.42v3.23A.42.42,0,0,1,468.66,391.25Z"/><path d="M462.86,444.38a.42.42,0,0,1-.42-.42v-3.84a.41.41,0,0,1,.42-.41h3.88a.42.42,0,1,1,0,.83h-3.46V444A.42.42,0,0,1,462.86,444.38Z"/><path d="M466.74,414.58h-3.88a.42.42,0,1,1,0-.83h3.88a.42.42,0,1,1,0,.83Z"/><path d="M468.66,448.26H396.57a.42.42,0,0,1-.42-.42.42.42,0,0,1,.42-.42h72.09a.42.42,0,0,1,.42.42A.42.42,0,0,1,468.66,448.26Z"/><path d="M501.32,229.49H396.57a.42.42,0,0,1,0-.84H501.32a.42.42,0,0,1,0,.84Z"/><path d="M435,233.37H396.57a.42.42,0,0,1,0-.84H435a.42.42,0,0,1,0,.84Z"/><path d="M505.15,233.37H438.87a.42.42,0,0,1,0-.84h66.28a.42.42,0,0,1,0,.84Z"/><path d="M627.49,166.37H598.66a.36.36,0,0,1-.36-.36V164.4a.36.36,0,0,1,.36-.36h28.83a.36.36,0,0,1,.36.36V166A.36.36,0,0,1,627.49,166.37ZM599,165.65h28.11v-.89H599Z"/><path d="M627.49,166.39a.36.36,0,0,1-.36-.36,28.48,28.48,0,0,0-28.45-28.44.36.36,0,0,1-.36-.36.36.36,0,0,1,.36-.36A29.19,29.19,0,0,1,627.85,166,.36.36,0,0,1,627.49,166.39Z"/><path d="M591,117h-1.62a.36.36,0,0,1-.36-.36V87.88a.36.36,0,0,1,.36-.36H591a.36.36,0,0,1,.36.36v28.78A.36.36,0,0,1,591,117Zm-1.26-.72h.89V88.24h-.89Z"/><path d="M562.21,117a.36.36,0,0,1-.36-.36A29.2,29.2,0,0,1,591,87.52a.36.36,0,1,1,0,.72,28.48,28.48,0,0,0-28.45,28.44A.36.36,0,0,1,562.21,117Z"/><path d="M497.49,97.51h-1.61a.36.36,0,0,1-.36-.36V68.32a.36.36,0,0,1,.36-.36h1.61a.36.36,0,0,1,.36.36V97.15A.36.36,0,0,1,497.49,97.51Zm-1.25-.72h.89V68.68h-.89Z"/><path d="M468.71,97.54a.36.36,0,0,1-.36-.36A29.19,29.19,0,0,1,497.51,68a.36.36,0,1,1,0,.72,28.48,28.48,0,0,0-28.44,28.45A.36.36,0,0,1,468.71,97.54Z"/><path d="M497.49,186.23h-1.61a.36.36,0,0,1-.36-.36V157a.36.36,0,0,1,.36-.36h1.61a.36.36,0,0,1,.36.36v28.83A.36.36,0,0,1,497.49,186.23Zm-1.25-.72h.89V157.4h-.89Z"/><path d="M497.51,186.23a29.2,29.2,0,0,1-29.16-29.17.36.36,0,1,1,.72,0,28.48,28.48,0,0,0,28.44,28.45.36.36,0,1,1,0,.72Z"/><path d="M462.86,106.79H437.25a.36.36,0,0,1-.36-.36v-1.62a.36.36,0,0,1,.36-.36h25.61a.36.36,0,0,1,.36.36v1.62A.36.36,0,0,1,462.86,106.79Zm-25.25-.72H462.5v-.9H437.61Z"/><path d="M462.88,130.83a26,26,0,0,1-26-26,.36.36,0,0,1,.72,0,25.3,25.3,0,0,0,25.27,25.27.36.36,0,0,1,0,.72Z"/><path d="M435,277.73a.42.42,0,0,1-.42-.42v-2.72a.42.42,0,0,1,.42-.42.41.41,0,0,1,.42.42v2.72A.42.42,0,0,1,435,277.73Z"/><path d="M435,313.72a.42.42,0,0,1-.42-.42v-4.94a.42.42,0,0,1,.42-.42.42.42,0,0,1,.42.42v4.94A.42.42,0,0,1,435,313.72Z"/><path d="M438.87,279.34a.42.42,0,0,1-.42-.42v-4.33a.41.41,0,0,1,.42-.42.42.42,0,0,1,.42.42v4.33A.42.42,0,0,1,438.87,279.34Z"/><path d="M438.87,313.72a.42.42,0,0,1-.42-.42v-4.94a.42.42,0,0,1,.42-.42.42.42,0,0,1,.42.42v4.94A.42.42,0,0,1,438.87,313.72Z"/><path d="M627.49,386.3H598.66a.36.36,0,0,1-.36-.36v-1.57a.36.36,0,0,1,.36-.36h28.83a.36.36,0,0,1,.36.36v1.57A.36.36,0,0,1,627.49,386.3ZM599,385.58h28.11v-.85H599Z"/><path d="M598.68,413.57a.36.36,0,0,1,0-.72,28.48,28.48,0,0,0,28.45-28.45.36.36,0,0,1,.72,0A29.2,29.2,0,0,1,598.68,413.57Z"/><path d="M591,456.51h-1.62a.36.36,0,0,1-.36-.36V427.32a.36.36,0,0,1,.36-.36H591a.36.36,0,0,1,.36.36v28.83A.36.36,0,0,1,591,456.51Zm-1.26-.72h.89V427.68h-.89Z"/><path d="M591,456.51a29.2,29.2,0,0,1-29.17-29.16.36.36,0,0,1,.72,0A28.48,28.48,0,0,0,591,455.79a.36.36,0,0,1,.36.36A.36.36,0,0,1,591,456.51Z"/><path d="M497.49,476.38h-1.61a.36.36,0,0,1-.36-.36v-24.7a.36.36,0,0,1,.36-.36h1.61a.36.36,0,0,1,.36.36V476A.36.36,0,0,1,497.49,476.38Zm-1.25-.72h.89v-24h-.89Z"/><path d="M497.22,476.38a28.92,28.92,0,0,1-28.92-28.87.36.36,0,0,1,.36-.36h0a.36.36,0,0,1,.36.35,28.18,28.18,0,0,0,28.2,28.16h.26a.36.36,0,0,1,0,.72Z"/><path d="M468.71,388a.36.36,0,0,1-.36-.36,29.19,29.19,0,0,1,29.16-29.17.36.36,0,0,1,0,.72,28.48,28.48,0,0,0-28.44,28.45A.36.36,0,0,1,468.71,388Z"/><path d="M470.87,279.28h-32a.37.37,0,0,1-.37-.36v-1.61a.37.37,0,0,1,.37-.36h32a.36.36,0,0,1,.36.36v1.61A.36.36,0,0,1,470.87,279.28Zm-31.64-.72h31.28v-.89H439.23Z"/><path d="M439.68,308.77h-.8a.36.36,0,0,1-.35-.37.35.35,0,0,1,.36-.35h0a30.86,30.86,0,0,0,31.66-30.72.36.36,0,0,1,.36-.35h0a.35.35,0,0,1,.35.36,31.57,31.57,0,0,1-31.6,31.44Z"/><path d="M462.86,440.18H437.25a.36.36,0,0,1-.36-.36v-1.61a.36.36,0,0,1,.36-.36h25.61a.36.36,0,0,1,.36.36v1.61A.36.36,0,0,1,462.86,440.18Zm-25.25-.72H462.5v-.89H437.61Z"/><path d="M437.25,440.21a.36.36,0,0,1-.36-.36,26,26,0,0,1,26-26,.36.36,0,1,1,0,.72,25.3,25.3,0,0,0-25.27,25.27A.36.36,0,0,1,437.25,440.21Z"/><path d="M438.87,277.73H435a.42.42,0,1,1,0-.84h3.84a.42.42,0,1,1,0,.84Z"/><path d="M438.87,308.78H435a.42.42,0,0,1,0-.84h3.84a.42.42,0,0,1,0,.84Z"/><path d="M497.49,388h-1.61a.36.36,0,0,1-.36-.36V358.77a.36.36,0,0,1,.36-.36h1.61a.36.36,0,0,1,.36.36V387.6A.36.36,0,0,1,497.49,388Zm-1.25-.72h.89V359.13h-.89Z"/><path d="M392.74,176.3a.37.37,0,0,1-.27-.13L312.42,80.09a.35.35,0,0,1,0-.5.36.36,0,0,1,.51,0l80,96.08a.36.36,0,0,1,0,.51A.38.38,0,0,1,392.74,176.3Z"/><path d="M312.69,176.3a.4.4,0,0,1-.23-.08.36.36,0,0,1,0-.51l80.05-96.08a.36.36,0,0,1,.55.46l-80,96.08A.37.37,0,0,1,312.69,176.3Z"/><path d="M392.74,465.49a.37.37,0,0,1-.27-.13l-80.05-96.08a.36.36,0,0,1,0-.51.37.37,0,0,1,.51.05l80,96.08a.35.35,0,0,1,0,.5A.33.33,0,0,1,392.74,465.49Z"/><path d="M312.69,465.49a.36.36,0,0,1-.27-.59l80.05-96.08a.36.36,0,0,1,.5-.05.36.36,0,0,1,0,.51l-80,96.08A.37.37,0,0,1,312.69,465.49Z"/><path d="M669.13,541.41a.42.42,0,0,1-.42-.42V502.58a.42.42,0,0,1,.42-.42.42.42,0,0,1,.42.42V541A.42.42,0,0,1,669.13,541.41Z"/><path d="M673,541.41a.42.42,0,0,1-.42-.42V502.58a.42.42,0,0,1,.84,0V541A.42.42,0,0,1,673,541.41Z"/><path d="M657,541.41H598.66a.42.42,0,0,1,0-.84H657a.42.42,0,0,1,0,.84Z"/><path d="M582.68,541.41H512.86a.42.42,0,0,1,0-.84h69.82a.42.42,0,1,1,0,.84Z"/><path d="M489.12,541.41H417.39a.42.42,0,0,1,0-.84h71.73a.42.42,0,0,1,0,.84Z"/><path d="M582.68,541.41H512.86a.42.42,0,0,1,0-.84h69.82a.42.42,0,1,1,0,.84Z"/><path d="M657,541.41H598.66a.42.42,0,0,1,0-.84H657a.42.42,0,0,1,0,.84Z"/><path d="M598.66,533.4h-3.83a.42.42,0,0,1-.42-.42.41.41,0,0,1,.42-.42h3.83a.42.42,0,0,1,.42.42A.42.42,0,0,1,598.66,533.4Z"/><path d="M598.66,137.6h-3.83a.42.42,0,0,1-.42-.42.41.41,0,0,1,.42-.42h3.83a.42.42,0,0,1,.42.42A.42.42,0,0,1,598.66,137.6Z"/><path d="M673,545.29a.42.42,0,0,1-.42-.42V541a.42.42,0,0,1,.84,0v3.88A.42.42,0,0,1,673,545.29Z"/><path d="M657,541.41H598.66a.42.42,0,0,1,0-.84H657a.42.42,0,0,1,0,.84Z"/><path d="M582.68,541.41H512.86a.42.42,0,0,1,0-.84h69.82a.42.42,0,1,1,0,.84Z"/><path d="M501.32,541.41H354.63a.42.42,0,0,1-.42-.42V469a.42.42,0,0,1,.42-.42.42.42,0,0,1,.42.42v71.61H501.32a.42.42,0,0,1,0,.84Z"/><path d="M594.83,541.41H505.15a.42.42,0,0,1-.42-.42V427.32a.42.42,0,1,1,.84,0V540.57h88.84V533a.41.41,0,0,1,.42-.42.42.42,0,0,1,.42.42v8A.42.42,0,0,1,594.83,541.41Z"/><path d="M705,541.41H598.66a.42.42,0,0,1-.42-.42v-8a.41.41,0,0,1,.42-.42.42.42,0,0,1,.42.42v7.59H705a.42.42,0,0,1,0,.84Z"/><path d="M673,545.29a.42.42,0,0,1-.42-.42V541a.42.42,0,0,1,.84,0v3.88A.42.42,0,0,1,673,545.29Z"/><path d="M598.66,413.58h-3.83a.42.42,0,0,1-.42-.42.41.41,0,0,1,.42-.42h3.83a.42.42,0,0,1,.42.42A.42.42,0,0,1,598.66,413.58Z"/><path d="M598.66,384.79h-3.83a.41.41,0,0,1-.42-.42.42.42,0,0,1,.42-.42h3.83a.42.42,0,0,1,.42.42A.42.42,0,0,1,598.66,384.79Z"/><path d="M396.57,154.23a.42.42,0,0,1-.42-.42V103.25a.42.42,0,0,1,.42-.42.42.42,0,0,1,.42.42v50.56A.42.42,0,0,1,396.57,154.23Z"/><path d="M396.57,229.49a.42.42,0,0,1-.42-.42V157a.42.42,0,0,1,.42-.42.41.41,0,0,1,.42.42v72A.42.42,0,0,1,396.57,229.49Z"/><path d="M396.57,277.38a.42.42,0,0,1-.42-.42V233a.42.42,0,0,1,.42-.42.42.42,0,0,1,.42.42v44A.42.42,0,0,1,396.57,277.38Z"/><path d="M396.57,364.33a.42.42,0,0,1-.42-.42V317.13a.42.42,0,0,1,.42-.42.42.42,0,0,1,.42.42v46.78A.42.42,0,0,1,396.57,364.33Z"/><path d="M392.74,277.38a.42.42,0,0,1-.42-.42V179.77a.42.42,0,0,1,.84,0V277A.42.42,0,0,1,392.74,277.38Z"/><path d="M392.74,364.33a.42.42,0,0,1-.42-.42V313.3a.42.42,0,0,1,.84,0v50.61A.42.42,0,0,1,392.74,364.33Z"/><path d="M435,237a.42.42,0,0,1-.42-.42V233a.42.42,0,0,1,.42-.42.42.42,0,0,1,.42.42v3.58A.42.42,0,0,1,435,237Z"/><path d="M435,277.73a.42.42,0,0,1-.42-.42v-9.73a.42.42,0,0,1,.42-.42.42.42,0,0,1,.42.42v9.73A.42.42,0,0,1,435,277.73Z"/><path d="M435,313.72a.42.42,0,0,1-.42-.42v-4.94a.42.42,0,0,1,.42-.42.42.42,0,0,1,.42.42v4.94A.42.42,0,0,1,435,313.72Z"/><path d="M438.87,237a.42.42,0,0,1-.42-.42V233a.42.42,0,0,1,.42-.42.42.42,0,0,1,.42.42v3.58A.42.42,0,0,1,438.87,237Z"/><path d="M438.87,271.12a.41.41,0,0,1-.42-.41v-3.13a.42.42,0,0,1,.42-.42.42.42,0,0,1,.42.42v3.13A.41.41,0,0,1,438.87,271.12Z"/><path d="M438.87,277.73a.42.42,0,0,1-.42-.42v-2.72a.41.41,0,0,1,.42-.42.42.42,0,0,1,.42.42v2.72A.42.42,0,0,1,438.87,277.73Z"/><path d="M438.87,313.72a.42.42,0,0,1-.42-.42v-4.94a.42.42,0,0,1,.42-.42.42.42,0,0,1,.42.42v4.94A.42.42,0,0,1,438.87,313.72Z"/><path d="M312.69,277.38a.42.42,0,0,1-.42-.42V179.77a.42.42,0,0,1,.42-.42.42.42,0,0,1,.42.42V277A.42.42,0,0,1,312.69,277.38Z"/><path d="M315.27,363.07a.42.42,0,0,1-.42-.42V313.3a.42.42,0,0,1,.42-.42.42.42,0,0,1,.42.42v49.35A.42.42,0,0,1,315.27,363.07Z"/><path d="M308.86,229.49a.42.42,0,0,1-.42-.42V157a.42.42,0,0,1,.42-.42.41.41,0,0,1,.42.42v72A.42.42,0,0,1,308.86,229.49Z"/><path d="M308.86,277.38a.42.42,0,0,1-.42-.42V233a.42.42,0,0,1,.42-.42.42.42,0,0,1,.42.42v44A.42.42,0,0,1,308.86,277.38Z"/><path d="M308.86,360.5a.42.42,0,0,1-.42-.42V313.3a.42.42,0,0,1,.42-.42.42.42,0,0,1,.42.42v46.78A.42.42,0,0,1,308.86,360.5Z"/><path d="M392.74,232.26H357.51a.12.12,0,0,1-.12-.12.12.12,0,0,1,.12-.12h35.23a.12.12,0,0,1,.12.12A.12.12,0,0,1,392.74,232.26Z"/><path d="M347.93,232.26H312.69a.12.12,0,0,1-.12-.12.13.13,0,0,1,.12-.12h35.24a.12.12,0,0,1,.12.12A.12.12,0,0,1,347.93,232.26Z"/><path d="M392.74,240.88H357.51a.12.12,0,0,1-.12-.12.12.12,0,0,1,.12-.12h35.23a.12.12,0,0,1,.12.12A.12.12,0,0,1,392.74,240.88Z"/><path d="M347.93,240.88H312.69a.12.12,0,0,1-.12-.12.13.13,0,0,1,.12-.12h35.24a.12.12,0,0,1,.12.12A.12.12,0,0,1,347.93,240.88Z"/><path d="M392.74,249.55H357.51a.12.12,0,0,1-.12-.12.12.12,0,0,1,.12-.12h35.23a.12.12,0,0,1,.12.12A.12.12,0,0,1,392.74,249.55Z"/><path d="M347.93,249.55H312.69a.12.12,0,0,1-.12-.12.13.13,0,0,1,.12-.12h35.24a.12.12,0,0,1,.12.12A.12.12,0,0,1,347.93,249.55Z"/><path d="M392.74,258.17H357.51a.12.12,0,0,1-.12-.12.12.12,0,0,1,.12-.12h35.23a.12.12,0,0,1,.12.12A.12.12,0,0,1,392.74,258.17Z"/><path d="M347.93,258.17H312.69a.12.12,0,0,1-.12-.12.13.13,0,0,1,.12-.12h35.24a.12.12,0,0,1,.12.12A.12.12,0,0,1,347.93,258.17Z"/><path d="M392.74,266.84H357.51a.12.12,0,0,1-.12-.12.12.12,0,0,1,.12-.12h35.23a.12.12,0,0,1,.12.12A.12.12,0,0,1,392.74,266.84Z"/><path d="M347.93,266.84H312.69a.12.12,0,0,1-.12-.12.13.13,0,0,1,.12-.12h35.24a.12.12,0,0,1,.12.12A.12.12,0,0,1,347.93,266.84Z"/><path d="M392.74,275.46H357.51a.12.12,0,0,1-.12-.12.12.12,0,0,1,.12-.12h35.23a.12.12,0,0,1,.12.12A.12.12,0,0,1,392.74,275.46Z"/><path d="M392.74,273.9h-4.58a.12.12,0,0,1,0-.24h4.58a.12.12,0,1,1,0,.24Z"/><path d="M386.14,273.9h-4a.12.12,0,0,1,0-.24h4a.12.12,0,1,1,0,.24Z"/><path d="M380.14,273.9h-4a.12.12,0,0,1,0-.24h4a.12.12,0,1,1,0,.24Z"/><path d="M374.14,273.9h-4a.12.12,0,0,1,0-.24h4a.12.12,0,1,1,0,.24Z"/><path d="M368.14,273.9h-4a.12.12,0,0,1,0-.24h4a.12.12,0,1,1,0,.24Z"/><path d="M362.14,273.9h-4.63a.12.12,0,0,1,0-.24h4.63a.12.12,0,1,1,0,.24Z"/><path d="M347.93,275.46H312.69a.12.12,0,0,1-.12-.12.13.13,0,0,1,.12-.12h35.24a.12.12,0,0,1,.12.12A.12.12,0,0,1,347.93,275.46Z"/><path d="M347.93,277.08h-4.64a.13.13,0,0,1-.12-.12.12.12,0,0,1,.12-.12h4.64a.12.12,0,0,1,.12.12A.12.12,0,0,1,347.93,277.08Z"/><path d="M341.33,277.08h-4a.13.13,0,0,1-.12-.12.12.12,0,0,1,.12-.12h4a.12.12,0,0,1,.12.12A.13.13,0,0,1,341.33,277.08Z"/><path d="M335.33,277.08h-4a.13.13,0,0,1-.12-.12.12.12,0,0,1,.12-.12h4a.12.12,0,0,1,.12.12A.13.13,0,0,1,335.33,277.08Z"/><path d="M329.28,277.08h-4a.12.12,0,0,1-.12-.12.12.12,0,0,1,.12-.12h4a.12.12,0,0,1,.12.12A.12.12,0,0,1,329.28,277.08Z"/><path d="M323.28,277.08h-4a.12.12,0,0,1-.12-.12.12.12,0,0,1,.12-.12h4a.12.12,0,0,1,.12.12A.12.12,0,0,1,323.28,277.08Z"/><path d="M317.28,277.08h-4.59a.13.13,0,0,1-.12-.12.12.12,0,0,1,.12-.12h4.59a.12.12,0,0,1,.12.12A.12.12,0,0,1,317.28,277.08Z"/><path d="M396.57,103.67a.42.42,0,0,1-.42-.42V101a.42.42,0,0,1,.42-.42.42.42,0,0,1,.42.42v2.27A.42.42,0,0,1,396.57,103.67Z"/><path d="M396.57,97.57a.42.42,0,0,1-.42-.42V76a.42.42,0,0,1,.42-.42A.42.42,0,0,1,397,76V97.15A.42.42,0,0,1,396.57,97.57Z"/><path d="M357.51,277.73a.42.42,0,0,1-.42-.42V212.94a.42.42,0,0,1,.42-.42.42.42,0,0,1,.42.42v64.37A.42.42,0,0,1,357.51,277.73Z"/><path d="M357.51,277.73h-9.58a.42.42,0,0,1-.42-.42V212.94a.42.42,0,0,1,.42-.42h9.58a.42.42,0,0,1,.42.42v64.37A.42.42,0,0,1,357.51,277.73Zm-9.16-.84h8.74V213.36h-8.74Z"/><path d="M355.59,275.76h-5.75a.42.42,0,0,1-.42-.42V214.85a.42.42,0,0,1,.42-.42h5.75a.42.42,0,0,1,.42.42v60.49A.42.42,0,0,1,355.59,275.76Zm-5.33-.84h4.91V215.27h-4.91Z"/><path d="M355.59,275.7a.37.37,0,0,1-.36-.32l-5.74-60.49a.35.35,0,0,1,.32-.39.34.34,0,0,1,.39.32L356,275.31a.36.36,0,0,1-.32.39Z"/><path d="M349.84,275.7h0a.35.35,0,0,1-.32-.39l5.74-60.49a.36.36,0,0,1,.72.07l-5.75,60.49A.35.35,0,0,1,349.84,275.7Z"/><path d="M348.38,213.06a.13.13,0,0,1-.12-.12V179.77a.12.12,0,0,1,.12-.12.12.12,0,0,1,.12.12v33.17A.12.12,0,0,1,348.38,213.06Z"/><path d="M357.05,213.06a.13.13,0,0,1-.12-.12V179.77a.12.12,0,0,1,.12-.12.12.12,0,0,1,.12.12v33.17A.12.12,0,0,1,357.05,213.06Z"/><path d="M355.44,213.06a.12.12,0,0,1-.12-.12v-3.58a.12.12,0,1,1,.24,0v3.58A.12.12,0,0,1,355.44,213.06Z"/><path d="M355.44,207.46a.12.12,0,0,1-.12-.12v-4a.12.12,0,1,1,.24,0v4A.12.12,0,0,1,355.44,207.46Z"/><path d="M355.44,201.46a.12.12,0,0,1-.12-.12v-4a.12.12,0,1,1,.24,0v4A.12.12,0,0,1,355.44,201.46Z"/><path d="M355.44,195.47a.12.12,0,0,1-.12-.12v-4a.12.12,0,0,1,.24,0v4A.12.12,0,0,1,355.44,195.47Z"/><path d="M355.44,189.47a.12.12,0,0,1-.12-.12v-4a.12.12,0,0,1,.24,0v4A.12.12,0,0,1,355.44,189.47Z"/><path d="M355.44,183.47a.12.12,0,0,1-.12-.12v-3.58a.12.12,0,0,1,.24,0v3.58A.12.12,0,0,1,355.44,183.47Z"/><path d="M396.57,277.38h-3.83a.42.42,0,0,1-.42-.42v-1.62a.42.42,0,0,1,.84,0v1.2h3.41a.41.41,0,0,1,.42.42A.42.42,0,0,1,396.57,277.38Z"/><path d="M312.69,277.38h-3.83a.42.42,0,0,1-.42-.42.42.42,0,0,1,.42-.42h3.83a.41.41,0,0,1,.42.42A.42.42,0,0,1,312.69,277.38Z"/><path d="M594.83,174.09a.42.42,0,0,1-.42-.42V166a.42.42,0,0,1,.42-.42.42.42,0,0,1,.42.42v7.66A.42.42,0,0,1,594.83,174.09Z"/><path d="M357.51,213.06a.1.1,0,0,1-.09,0,.12.12,0,0,1,0-.17l35.24-33.17a.12.12,0,0,1,.16.18L357.59,213A.11.11,0,0,1,357.51,213.06Z"/><path d="M357.05,211.29a.11.11,0,0,1-.08,0,.11.11,0,0,1,0-.17l2.82-2.67a.12.12,0,1,1,.17.17l-2.82,2.67A.16.16,0,0,1,357.05,211.29Z"/><path d="M361.34,207.26a.11.11,0,0,1-.09,0,.14.14,0,0,1,0-.17l2.93-2.77a.12.12,0,0,1,.17,0,.12.12,0,0,1,0,.17l-2.92,2.77A.11.11,0,0,1,361.34,207.26Z"/><path d="M365.72,203.13a.09.09,0,0,1-.08,0,.11.11,0,0,1,0-.17l2.93-2.72a.12.12,0,1,1,.16.17l-2.92,2.73Z"/><path d="M370.11,199a.16.16,0,0,1-.09,0,.12.12,0,0,1,0-.17l2.87-2.72a.12.12,0,0,1,.17,0,.12.12,0,0,1,0,.17L370.19,199A.11.11,0,0,1,370.11,199Z"/><path d="M374.44,194.91a.09.09,0,0,1-.08,0,.11.11,0,0,1,0-.17l2.93-2.77a.12.12,0,0,1,.17,0,.12.12,0,0,1,0,.17l-2.92,2.77A.16.16,0,0,1,374.44,194.91Z"/><path d="M378.83,190.78a.11.11,0,0,1-.09,0,.12.12,0,0,1,0-.17l2.92-2.72a.12.12,0,1,1,.16.17l-2.92,2.73A.11.11,0,0,1,378.83,190.78Z"/><path d="M383.21,186.7a.12.12,0,0,1-.08,0,.11.11,0,0,1,0-.17l2.93-2.77a.11.11,0,0,1,.17,0,.12.12,0,0,1,0,.17l-2.92,2.77A.18.18,0,0,1,383.21,186.7Z"/><path d="M387.6,182.56a.12.12,0,0,1-.09,0,.12.12,0,0,1,0-.17l2.82-2.67a.12.12,0,0,1,.16.18l-2.82,2.67A.11.11,0,0,1,387.6,182.56Z"/><path d="M347.93,213.06a.11.11,0,0,1-.08,0l-35.24-33.17a.12.12,0,0,1,.17-.18L348,212.85a.12.12,0,0,1,0,.17A.12.12,0,0,1,347.93,213.06Z"/><path d="M346.82,214.22a.11.11,0,0,1-.08,0l-3.23-3a.12.12,0,0,1,.17-.17l3.22,3a.12.12,0,0,1,0,.17A.12.12,0,0,1,346.82,214.22Z"/><path d="M342.13,209.78a.11.11,0,0,1-.08,0L339.13,207a.12.12,0,1,1,.16-.18l2.92,2.72a.12.12,0,0,1,0,.17A.1.1,0,0,1,342.13,209.78Z"/><path d="M337.75,205.7a.16.16,0,0,1-.09,0l-2.87-2.78a.12.12,0,0,1,.17-.17l2.87,2.77a.12.12,0,0,1,0,.17A.09.09,0,0,1,337.75,205.7Z"/><path d="M333.41,201.57a.12.12,0,0,1-.08,0l-2.92-2.72a.12.12,0,0,1,0-.17.11.11,0,0,1,.17,0l2.92,2.72a.12.12,0,0,1,0,.17A.15.15,0,0,1,333.41,201.57Z"/><path d="M329,197.48l-.09,0L326,194.68a.12.12,0,0,1,0-.17.12.12,0,0,1,.17,0l2.92,2.78a.11.11,0,0,1,0,.17A.11.11,0,0,1,329,197.48Z"/><path d="M324.64,193.35a.11.11,0,0,1-.08,0l-2.93-2.78a.12.12,0,0,1,.17-.17l2.92,2.77a.12.12,0,0,1,0,.17A.11.11,0,0,1,324.64,193.35Z"/><path d="M320.26,189.22a.12.12,0,0,1-.09,0l-2.87-2.72a.12.12,0,1,1,.17-.17l2.87,2.72a.11.11,0,0,1,0,.17A.12.12,0,0,1,320.26,189.22Z"/><path d="M315.92,185.13a.11.11,0,0,1-.08,0l-3.23-3a.12.12,0,0,1,.17-.18l3.22,3a.12.12,0,0,1,0,.17A.12.12,0,0,1,315.92,185.13Z"/><path d="M.42,545.29a.42.42,0,0,1-.42-.42V541a.42.42,0,0,1,.42-.42H32.48a.42.42,0,0,1,0,.84H.84v3.46A.42.42,0,0,1,.42,545.29Z"/><path d="M106.78,541.41H48.46a.42.42,0,1,1,0-.84h58.32a.42.42,0,0,1,0,.84Z"/><path d="M.42,545.29a.42.42,0,0,1-.42-.42V541a.42.42,0,0,1,.42-.42H32.48a.42.42,0,0,1,0,.84H.84v3.46A.42.42,0,0,1,.42,545.29Z"/><path d="M352.72,545.29H.42a.42.42,0,0,1-.42-.42V541a.42.42,0,0,1,.42-.42.42.42,0,0,1,.42.42v3.46H352.72a.42.42,0,1,1,0,.84Z"/><path d="M32.48,4.67H.42A.42.42,0,0,1,0,4.25V.42A.42.42,0,0,1,.42,0,.42.42,0,0,1,.84.42V3.83H32.48a.42.42,0,0,1,0,.84Z"/><path d="M106.78,4.67H45.28a.42.42,0,1,1,0-.84h61.5a.42.42,0,1,1,0,.84Z"/><path d="M110.61,117.08a.42.42,0,0,1-.42-.42V4.25a.42.42,0,0,1,.42-.42h89.68a.42.42,0,1,1,0,.84H111v112A.42.42,0,0,1,110.61,117.08Z"/><path d="M350.8,4.72H204.12a.42.42,0,0,1,0-.84H350.8a.42.42,0,0,1,0,.84Z"/><path d="M106.78,43.13a.42.42,0,0,1-.42-.42v-38H36.73v38a.42.42,0,1,1-.84,0V4.25a.42.42,0,0,1,.42-.42h70.47a.42.42,0,0,1,.42.42V42.71A.42.42,0,0,1,106.78,43.13Z"/><path d="M32.48,4.67H.42A.42.42,0,0,1,0,4.25V.42A.42.42,0,0,1,.42,0,.42.42,0,0,1,.84.42V3.83H32.48a.42.42,0,0,1,0,.84Z"/><path d="M.42,4.67A.42.42,0,0,1,0,4.25V.42A.42.42,0,0,1,.42,0h352.3a.42.42,0,0,1,.42.42.42.42,0,0,1-.42.42H.84V4.25A.42.42,0,0,1,.42,4.67Z"/><path d="M237.74,275H192.27a.42.42,0,0,1-.42-.42.42.42,0,0,1,.42-.42h45.47a.42.42,0,0,1,.42.42A.42.42,0,0,1,237.74,275Z"/><path d="M200.29,275H106.78a.42.42,0,0,1-.42-.42.42.42,0,0,1,.42-.42h93.51a.42.42,0,0,1,.42.42A.42.42,0,0,1,200.29,275Z"/><path d="M105.17,275H45.28a.42.42,0,0,1-.42-.42.42.42,0,0,1,.42-.42h59.89a.42.42,0,0,1,.42.42A.42.42,0,0,1,105.17,275Z"/><path d="M32.48,275H.42a.42.42,0,0,1-.42-.42.42.42,0,0,1,.42-.42H32.48a.42.42,0,0,1,.42.42A.42.42,0,0,1,32.48,275Z"/><path d="M308.86,313.72H270.4a.42.42,0,1,1,0-.84h38.46a.42.42,0,0,1,0,.84Z"/><path d="M266.57,313.72H200.29a.42.42,0,0,1,0-.84h66.28a.42.42,0,0,1,0,.84Z"/><path d="M308.86,317.55H204.12a.42.42,0,0,1,0-.84H308.86a.42.42,0,0,1,0,.84Z"/><path d="M287.69,313.72h-3.83a.42.42,0,1,1,0-.84h3.83a.42.42,0,0,1,0,.84Z"/><path d="M287.69,317.55h-3.83a.42.42,0,0,1,0-.84h3.83a.42.42,0,0,1,0,.84Z"/><path d="M237.74,275H192.27a.42.42,0,0,1-.42-.42.42.42,0,0,1,.42-.42h45.47a.42.42,0,0,1,.42.42A.42.42,0,0,1,237.74,275Z"/><path d="M200.29,275H106.78a.42.42,0,0,1-.42-.42.42.42,0,0,1,.42-.42h93.51a.42.42,0,0,1,.42.42A.42.42,0,0,1,200.29,275Z"/><path d="M105.17,275H45.28a.42.42,0,0,1-.42-.42.42.42,0,0,1,.42-.42h59.89a.42.42,0,0,1,.42.42A.42.42,0,0,1,105.17,275Z"/><path d="M32.48,275H.42a.42.42,0,0,1-.42-.42V169.84a.42.42,0,0,1,.42-.42.42.42,0,0,1,.42.42V274.17H32.48a.42.42,0,0,1,.42.42A.42.42,0,0,1,32.48,275Z"/><path d="M105.17,275H45.28a.42.42,0,0,1-.42-.42.42.42,0,0,1,.42-.42h59.89a.42.42,0,0,1,.42.42A.42.42,0,0,1,105.17,275Z"/><path d="M200.29,275H106.78a.42.42,0,0,1-.42-.42.42.42,0,0,1,.42-.42h93.51a.42.42,0,0,1,.42.42A.42.42,0,0,1,200.29,275Z"/><path d="M237.74,275H192.27a.42.42,0,0,1-.42-.42.42.42,0,0,1,.42-.42h45.47a.42.42,0,0,1,.42.42A.42.42,0,0,1,237.74,275Z"/><path d="M32.48,271.12H4.3a.41.41,0,0,1-.42-.41v-97a.42.42,0,1,1,.84,0v96.62H32.48a.42.42,0,1,1,0,.83Z"/><path d="M105.17,271.12H45.28a.42.42,0,1,1,0-.83h59.89a.42.42,0,1,1,0,.83Z"/><path d="M200.29,271.12H106.78a.42.42,0,1,1,0-.83h93.51a.42.42,0,1,1,0,.83Z"/><path d="M266.57,271.12h-74.3a.42.42,0,1,1,0-.83h74.3a.42.42,0,1,1,0,.83Z"/><path d="M110.61,174.09H4.3a.42.42,0,1,1,0-.84H110.61a.42.42,0,0,1,0,.84Z"/><path d="M106.78,170.26H10.7a.42.42,0,1,1,0-.84h96.08a.42.42,0,1,1,0,.84Z"/><path d="M6.87,170.26H.42a.42.42,0,0,1,0-.84H6.87a.42.42,0,0,1,0,.84Z"/><path d="M110.61,137.6a.42.42,0,0,1-.42-.42V120.54a.42.42,0,0,1,.84,0v16.64A.42.42,0,0,1,110.61,137.6Z"/><path d="M106.78,137.6a.42.42,0,0,1-.42-.42V46.54a.42.42,0,0,1,.84,0v90.64A.42.42,0,0,1,106.78,137.6Z"/><path d="M106.78,170.26a.42.42,0,0,1-.42-.42V166a.42.42,0,0,1,.42-.42h3.83a.42.42,0,0,1,0,.84H107.2v3.41A.42.42,0,0,1,106.78,170.26Z"/><path d="M114.44,121h-3.83a.42.42,0,0,1,0-.84H114v-3.46a.42.42,0,0,1,.84,0v3.88A.42.42,0,0,1,114.44,121Z"/><path d="M143.28,121a.42.42,0,0,1-.42-.42v-3.88a.42.42,0,0,1,.42-.42.42.42,0,0,1,.42.42v3.88A.42.42,0,0,1,143.28,121Z"/><path d="M114.44,117.08h-3.83a.42.42,0,0,1,0-.84h3.83a.42.42,0,0,1,0,.84Z"/><path d="M204.12,121H143.28a.42.42,0,0,1,0-.84h60.84a.42.42,0,1,1,0,.84Z"/><path d="M200.29,117.08h-57a.42.42,0,0,1,0-.84h56.59V4.25a.42.42,0,0,1,.42-.42.42.42,0,0,1,.42.42V116.66A.42.42,0,0,1,200.29,117.08Z"/><path d="M204.12,121a.42.42,0,0,1-.42-.42V101a.42.42,0,0,1,.42-.42.42.42,0,0,1,.42.42v19.56A.42.42,0,0,1,204.12,121Z"/><path d="M204.12,97.57a.42.42,0,0,1-.42-.42V4.3a.42.42,0,0,1,.42-.42.42.42,0,0,1,.42.42V97.15A.42.42,0,0,1,204.12,97.57Z"/><path d="M106.78,43.13H36.31a.42.42,0,0,1,0-.84h70.47a.42.42,0,0,1,0,.84Z"/><path d="M32.48,43.13H6.87a.42.42,0,0,1,0-.84H32.48a.42.42,0,0,1,0,.84Z"/><path d="M106.78,47H10.7a.42.42,0,0,1,0-.84h96.08a.42.42,0,0,1,0,.84Z"/><path d="M32.48,43.13a.42.42,0,0,1-.42-.42V4.25a.42.42,0,1,1,.84,0V42.71A.42.42,0,0,1,32.48,43.13Z"/><path d="M6.87,174.09a.42.42,0,0,1-.42-.42v-131a.42.42,0,0,1,.84,0v131A.42.42,0,0,1,6.87,174.09Z"/><path d="M10.7,170.26a.42.42,0,0,1-.42-.42V46.54a.42.42,0,0,1,.42-.42.42.42,0,0,1,.42.42v123.3A.42.42,0,0,1,10.7,170.26Z"/><path d="M32.48,275a.42.42,0,0,1-.42-.42V173.67a.42.42,0,0,1,.84,0V274.59A.42.42,0,0,1,32.48,275Z"/><path d="M36.31,180.49a.42.42,0,0,1-.42-.42v-.6a.42.42,0,1,1,.84,0v.6A.42.42,0,0,1,36.31,180.49Z"/><path d="M208,101.4h-3.83a.42.42,0,1,1,0-.84H208a.42.42,0,0,1,0,.84Z"/><path d="M238.7,101.4h-1.92a.42.42,0,0,1,0-.84h1.92a.42.42,0,0,1,0,.84Z"/><path d="M308.86,101.4H242.53a.42.42,0,0,1,0-.84h66.33a.42.42,0,1,1,0,.84Z"/><path d="M208,97.57h-3.83a.42.42,0,0,1,0-.84H208a.42.42,0,0,1,0,.84Z"/><path d="M308.86,97.57H236.78a.42.42,0,1,1,0-.84h72.08a.42.42,0,1,1,0,.84Z"/><path d="M204.12,229.49a.42.42,0,0,1-.42-.42V157a.41.41,0,0,1,.42-.42.42.42,0,0,1,.42.42v72A.42.42,0,0,1,204.12,229.49Z"/><path d="M200.29,233.37a.42.42,0,0,1-.42-.42V153.21a.41.41,0,0,1,.42-.42.42.42,0,0,1,.42.42V233A.42.42,0,0,1,200.29,233.37Z"/><path d="M308.86,154.23H242.53a.42.42,0,0,1,0-.84h66.33a.42.42,0,0,1,0,.84Z"/><path d="M238.7,154.23h-1.92a.42.42,0,0,1,0-.84h1.92a.42.42,0,0,1,0,.84Z"/><path d="M208,153.62h-7.66a.42.42,0,1,1,0-.83H208a.42.42,0,1,1,0,.83Z"/><path d="M208,157.46h-3.83a.42.42,0,0,1-.42-.42.41.41,0,0,1,.42-.42H208a.42.42,0,0,1,.42.42A.42.42,0,0,1,208,157.46Z"/><path d="M308.86,157.46H236.78a.42.42,0,0,1-.42-.42.42.42,0,0,1,.42-.42h72.08a.41.41,0,0,1,.42.42A.42.42,0,0,1,308.86,157.46Z"/><path d="M208,101.4h-3.83a.42.42,0,1,1,0-.84h3.41V97.15a.42.42,0,1,1,.84,0V101A.42.42,0,0,1,208,101.4Z"/><path d="M236.78,101.4a.42.42,0,0,1-.42-.42V97.15a.42.42,0,0,1,.84,0V101A.42.42,0,0,1,236.78,101.4Z"/><path d="M238.7,105.23a.41.41,0,0,1-.42-.42V101a.42.42,0,0,1,.42-.42.42.42,0,0,1,.42.42v3.83A.42.42,0,0,1,238.7,105.23Z"/><path d="M238.7,154.23a.42.42,0,0,1-.42-.42V130.47a.42.42,0,0,1,.42-.42.42.42,0,0,1,.42.42v23.34A.42.42,0,0,1,238.7,154.23Z"/><path d="M242.53,105.23a.41.41,0,0,1-.42-.42V101a.42.42,0,0,1,.42-.42.42.42,0,0,1,.42.42v3.83A.42.42,0,0,1,242.53,105.23Z"/><path d="M242.53,154.23a.42.42,0,0,1-.42-.42V130.47a.42.42,0,0,1,.42-.42.42.42,0,0,1,.42.42v23.34A.42.42,0,0,1,242.53,154.23Z"/><path d="M208,157.46a.42.42,0,0,1-.42-.42v-3.83a.42.42,0,1,1,.84,0V157A.42.42,0,0,1,208,157.46Z"/><path d="M236.78,157.46a.42.42,0,0,1-.42-.42v-3.23a.42.42,0,1,1,.84,0V157A.42.42,0,0,1,236.78,157.46Z"/><path d="M242.53,105.23H238.7a.41.41,0,0,1-.42-.42.42.42,0,0,1,.42-.42h3.41V101a.42.42,0,0,1,.42-.42.42.42,0,0,1,.42.42v3.83A.42.42,0,0,1,242.53,105.23Z"/><path d="M242.53,130.89H238.7a.42.42,0,0,1,0-.84h3.83a.42.42,0,0,1,0,.84Z"/><path d="M266.57,271.12h-74.3a.42.42,0,1,1,0-.83h74.3a.42.42,0,1,1,0,.83Z"/><path d="M200.29,271.12H106.78a.42.42,0,1,1,0-.83h93.51a.42.42,0,1,1,0,.83Z"/><path d="M105.17,271.12H45.28a.42.42,0,1,1,0-.83h59.89a.42.42,0,1,1,0,.83Z"/><path d="M32.48,271.12H.42a.42.42,0,1,1,0-.83H32.48a.42.42,0,1,1,0,.83Z"/><path d="M266.57,271.12h-74.3a.42.42,0,1,1,0-.83h74.3a.42.42,0,1,1,0,.83Z"/><path d="M200.29,271.12H106.78a.42.42,0,1,1,0-.83h93.51a.42.42,0,1,1,0,.83Z"/><path d="M105.17,271.12H45.28a.42.42,0,1,1,0-.83h59.89a.42.42,0,1,1,0,.83Z"/><path d="M.42,375.87a.42.42,0,0,1-.42-.42V270.71a.42.42,0,0,1,.42-.42H32.48a.42.42,0,1,1,0,.83H.84V375.45A.42.42,0,0,1,.42,375.87Z"/><path d="M105.17,271.12H36.31a.41.41,0,0,1-.42-.41v-97a.42.42,0,1,1,.84,0v96.62h68.44a.42.42,0,1,1,0,.83Z"/><path d="M200.29,271.12H106.78a.42.42,0,1,1,0-.83h93.51a.42.42,0,1,1,0,.83Z"/><path d="M266.57,271.12h-74.3a.42.42,0,1,1,0-.83h74.3a.42.42,0,1,1,0,.83Z"/><path d="M4.3,372a.42.42,0,0,1-.42-.42v-97a.42.42,0,0,1,.42-.42H32.48a.42.42,0,0,1,.42.42.42.42,0,0,1-.42.42H4.72v96.61A.42.42,0,0,1,4.3,372Z"/><path d="M36.31,372a.42.42,0,0,1-.42-.42v-97a.42.42,0,0,1,.42-.42h68.86a.42.42,0,0,1,.42.42.42.42,0,0,1-.42.42H36.73v96.61A.42.42,0,0,1,36.31,372Z"/><path d="M200.29,275H106.78a.42.42,0,0,1-.42-.42.42.42,0,0,1,.42-.42h93.51a.42.42,0,0,1,.42.42A.42.42,0,0,1,200.29,275Z"/><path d="M266.57,277.73a.42.42,0,0,1-.42-.42V275H192.27a.42.42,0,0,1-.42-.42.42.42,0,0,1,.42-.42h74.3a.42.42,0,0,1,.42.42v2.72A.42.42,0,0,1,266.57,277.73Z"/><path d="M266.57,313.72a.42.42,0,0,1-.42-.42v-4.94a.42.42,0,1,1,.84,0v4.94A.42.42,0,0,1,266.57,313.72Z"/><path d="M110.61,372H4.3a.42.42,0,0,1,0-.84H110.61a.42.42,0,1,1,0,.84Z"/><path d="M106.78,375.87H10.7a.42.42,0,0,1,0-.84h96.08a.42.42,0,1,1,0,.84Z"/><path d="M6.87,375.87H.42a.42.42,0,1,1,0-.84H6.87a.42.42,0,1,1,0,.84Z"/><path d="M110.61,423.91a.42.42,0,0,1-.42-.42V413.16a.42.42,0,1,1,.84,0v10.33A.42.42,0,0,1,110.61,423.91Z"/><path d="M110.61,384.79a.42.42,0,0,1-.42-.42V371.62a.42.42,0,0,1,.84,0v12.75A.42.42,0,0,1,110.61,384.79Z"/><path d="M106.78,541.41a.42.42,0,0,1-.42-.42V502.58a.42.42,0,0,1,.84,0V541A.42.42,0,0,1,106.78,541.41Z"/><path d="M106.78,499.17a.42.42,0,0,1-.42-.42V413.16a.42.42,0,1,1,.84,0v85.59A.42.42,0,0,1,106.78,499.17Z"/><path d="M106.78,386.36a.42.42,0,0,1-.42-.42V375.45a.42.42,0,0,1,.84,0v10.49A.42.42,0,0,1,106.78,386.36Z"/><path d="M114.44,427.74a.42.42,0,0,1-.42-.42v-3.41h-3.41a.42.42,0,1,1,0-.84h3.83a.42.42,0,0,1,.42.42v3.83A.42.42,0,0,1,114.44,427.74Z"/><path d="M143.28,427.74a.42.42,0,0,1-.42-.42v-3.83a.42.42,0,0,1,.42-.42.42.42,0,0,1,.42.42v3.83A.42.42,0,0,1,143.28,427.74Z"/><path d="M114.44,427.74h-3.83a.42.42,0,1,1,0-.84h3.83a.42.42,0,0,1,0,.84Z"/><path d="M204.12,423.91H143.28a.42.42,0,0,1,0-.84h60.84a.42.42,0,1,1,0,.84Z"/><path d="M200.29,427.74h-57a.42.42,0,0,1,0-.84h57a.42.42,0,1,1,0,.84Z"/><path d="M204.12,447.9a.41.41,0,0,1-.42-.42v-24a.42.42,0,0,1,.42-.42.42.42,0,0,1,.42.42v24A.42.42,0,0,1,204.12,447.9Z"/><path d="M204.12,541.41a.42.42,0,0,1-.42-.42V451.32a.41.41,0,0,1,.42-.42.42.42,0,0,1,.42.42V541A.42.42,0,0,1,204.12,541.41Z"/><path d="M106.78,503H6.87a.42.42,0,1,1,0-.84h99.91a.42.42,0,1,1,0,.84Z"/><path d="M106.78,499.17H10.7a.42.42,0,0,1,0-.84h96.08a.42.42,0,0,1,0,.84Z"/><path d="M6.87,503a.42.42,0,0,1-.42-.42v-131a.42.42,0,0,1,.84,0v131A.42.42,0,0,1,6.87,503Z"/><path d="M10.7,499.17a.42.42,0,0,1-.42-.42V375.45a.42.42,0,0,1,.42-.42.42.42,0,0,1,.42.42v123.3A.42.42,0,0,1,10.7,499.17Z"/><path d="M32.48,372a.42.42,0,0,1-.42-.42V264a.42.42,0,0,1,.84,0V371.62A.42.42,0,0,1,32.48,372Z"/><path d="M36.31,366.24a.42.42,0,0,1-.42-.42V355.24a.42.42,0,1,1,.84,0v10.58A.42.42,0,0,1,36.31,366.24Z"/><path d="M208,447.9h-3.83a.41.41,0,0,1-.42-.42.42.42,0,0,1,.42-.42H208a.42.42,0,0,1,.42.42A.42.42,0,0,1,208,447.9Z"/><path d="M238.7,444.38h-1.92a.42.42,0,0,1-.42-.42.42.42,0,0,1,.42-.42h1.92a.42.42,0,0,1,.42.42A.42.42,0,0,1,238.7,444.38Z"/><path d="M308.86,444.38H242.53a.42.42,0,0,1-.42-.42.41.41,0,0,1,.42-.42h66.33a.41.41,0,0,1,.42.42A.42.42,0,0,1,308.86,444.38Z"/><path d="M208,451.74h-3.83a.42.42,0,0,1-.42-.42.41.41,0,0,1,.42-.42H208a.42.42,0,0,1,.42.42A.42.42,0,0,1,208,451.74Z"/><path d="M287.69,317.55h-3.83a.42.42,0,0,1,0-.84h3.83a.42.42,0,0,1,0,.84Z"/><path d="M287.69,313.72h-3.83a.42.42,0,1,1,0-.84h3.83a.42.42,0,0,1,0,.84Z"/><path d="M308.86,444.38a.42.42,0,0,1-.42-.42V390.83a.42.42,0,0,1,.42-.42.41.41,0,0,1,.42.42V444A.42.42,0,0,1,308.86,444.38Z"/><path d="M308.86,388a.42.42,0,0,1-.42-.42V363.91a.42.42,0,0,1,.42-.42.42.42,0,0,1,.42.42V387.6A.42.42,0,0,1,308.86,388Z"/><path d="M204.12,388a.42.42,0,0,1-.42-.42V317.13a.42.42,0,0,1,.42-.42.42.42,0,0,1,.42.42V387.6A.42.42,0,0,1,204.12,388Z"/><path d="M200.29,391.25a.42.42,0,0,1-.42-.42V313.3a.42.42,0,0,1,.42-.42.42.42,0,0,1,.42.42v77.53A.42.42,0,0,1,200.29,391.25Z"/><path d="M308.86,391.25H242.53a.42.42,0,0,1-.42-.42.41.41,0,0,1,.42-.42h66.33a.41.41,0,0,1,.42.42A.42.42,0,0,1,308.86,391.25Z"/><path d="M238.7,391.25h-1.92a.42.42,0,0,1-.42-.42.42.42,0,0,1,.42-.42h1.92a.42.42,0,0,1,.42.42A.42.42,0,0,1,238.7,391.25Z"/><path d="M208,391.25h-7.66a.42.42,0,0,1-.42-.42.41.41,0,0,1,.42-.42H208a.42.42,0,0,1,.42.42A.42.42,0,0,1,208,391.25Z"/><path d="M204.12,423.91h-3.83a.42.42,0,0,1,0-.84h3.83a.42.42,0,1,1,0,.84Z"/><path d="M308.86,388H236.78a.42.42,0,1,1,0-.84h72.08a.42.42,0,0,1,0,.84Z"/><path d="M208,451.74a.42.42,0,0,1-.42-.42V447.9h-3.41a.41.41,0,0,1-.42-.42.42.42,0,0,1,.42-.42H208a.42.42,0,0,1,.42.42v3.84A.42.42,0,0,1,208,451.74Z"/><path d="M236.78,448.26a.42.42,0,0,1-.42-.42V444a.42.42,0,1,1,.84,0v3.88A.42.42,0,0,1,236.78,448.26Z"/><path d="M238.7,444.38a.42.42,0,0,1-.42-.42v-3.84a.41.41,0,0,1,.42-.41.41.41,0,0,1,.42.41V444A.42.42,0,0,1,238.7,444.38Z"/><path d="M238.7,414.58a.41.41,0,0,1-.42-.41V390.83a.41.41,0,0,1,.42-.42.42.42,0,0,1,.42.42v23.34A.41.41,0,0,1,238.7,414.58Z"/><path d="M242.53,444.38a.42.42,0,0,1-.42-.42v-3.84a.41.41,0,0,1,.42-.41.41.41,0,0,1,.42.41V444A.42.42,0,0,1,242.53,444.38Z"/><path d="M242.53,414.58a.41.41,0,0,1-.42-.41V390.83a.41.41,0,0,1,.42-.42.42.42,0,0,1,.42.42v23.34A.41.41,0,0,1,242.53,414.58Z"/><path d="M208,391.25a.42.42,0,0,1-.42-.42V387.6a.42.42,0,0,1,.84,0v3.23A.42.42,0,0,1,208,391.25Z"/><path d="M236.78,391.25a.42.42,0,0,1-.42-.42V387.6a.42.42,0,0,1,.84,0v3.23A.42.42,0,0,1,236.78,391.25Z"/><path d="M242.53,444.38a.42.42,0,0,1-.42-.42v-3.42H238.7a.42.42,0,1,1,0-.83h3.83a.41.41,0,0,1,.42.41V444A.42.42,0,0,1,242.53,444.38Z"/><path d="M242.53,414.58H238.7a.42.42,0,1,1,0-.83h3.83a.42.42,0,1,1,0,.83Z"/><path d="M308.86,448.26H236.78a.42.42,0,0,1-.42-.42.42.42,0,0,1,.42-.42h72.08a.41.41,0,0,1,.42.42A.42.42,0,0,1,308.86,448.26Z"/><path d="M308.86,229.49H204.12a.42.42,0,0,1,0-.84H308.86a.42.42,0,1,1,0,.84Z"/><path d="M308.86,233.37H270.4a.42.42,0,1,1,0-.84h38.46a.42.42,0,1,1,0,.84Z"/><path d="M266.57,233.37H200.29a.42.42,0,1,1,0-.84h66.28a.42.42,0,1,1,0,.84Z"/><path d="M106.78,166.37H78a.36.36,0,0,1-.36-.36V164.4A.36.36,0,0,1,78,164h28.83a.36.36,0,0,1,.36.36V166A.36.36,0,0,1,106.78,166.37Zm-28.47-.72h28.11v-.89H78.31Z"/><path d="M78,166.39a.36.36,0,0,1-.36-.36,29.19,29.19,0,0,1,29.16-29.16.37.37,0,0,1,.37.36.37.37,0,0,1-.37.36A28.47,28.47,0,0,0,78.36,166,.36.36,0,0,1,78,166.39Z"/><path d="M116.05,117h-1.61a.36.36,0,0,1-.36-.36V87.88a.36.36,0,0,1,.36-.36h1.61a.37.37,0,0,1,.37.36v28.78A.37.37,0,0,1,116.05,117Zm-1.25-.72h.89V88.24h-.89Z"/><path d="M143.28,117a.36.36,0,0,1-.36-.36,28.48,28.48,0,0,0-28.45-28.44.36.36,0,0,1,0-.72,29.2,29.2,0,0,1,29.17,29.16A.36.36,0,0,1,143.28,117Z"/><path d="M209.56,97.51H208a.36.36,0,0,1-.36-.36V68.32A.36.36,0,0,1,208,68h1.61a.36.36,0,0,1,.36.36V97.15A.36.36,0,0,1,209.56,97.51Zm-1.25-.72h.89V68.68h-.89Z"/><path d="M236.78,97.54a.36.36,0,0,1-.36-.36A28.48,28.48,0,0,0,208,68.73a.36.36,0,0,1,0-.72,29.2,29.2,0,0,1,29.17,29.17A.36.36,0,0,1,236.78,97.54Z"/><path d="M209.56,186.23H208a.36.36,0,0,1-.36-.36V157a.36.36,0,0,1,.36-.36h1.61a.36.36,0,0,1,.36.36v28.83A.36.36,0,0,1,209.56,186.23Zm-1.25-.72h.89V157.4h-.89Z"/><path d="M208,186.23a.36.36,0,1,1,0-.72,28.48,28.48,0,0,0,28.45-28.45.36.36,0,1,1,.72,0A29.2,29.2,0,0,1,208,186.23Z"/><path d="M268.18,106.79H242.53a.36.36,0,0,1-.36-.36v-1.62a.36.36,0,0,1,.36-.36h25.65a.36.36,0,0,1,.36.36v1.62A.36.36,0,0,1,268.18,106.79Zm-25.29-.72h24.93v-.9H242.89Z"/><path d="M242.55,130.83a.36.36,0,1,1,0-.72,25.3,25.3,0,0,0,25.27-25.27.36.36,0,0,1,.36-.36.36.36,0,0,1,.36.36A26,26,0,0,1,242.55,130.83Z"/><path d="M106.78,386.3H78a.36.36,0,0,1-.36-.36v-1.57A.36.36,0,0,1,78,384h28.83a.36.36,0,0,1,.36.36v1.57A.36.36,0,0,1,106.78,386.3Zm-28.47-.72h28.11v-.85H78.31Z"/><path d="M106.8,413.57A29.2,29.2,0,0,1,77.64,384.4a.36.36,0,0,1,.72,0,28.48,28.48,0,0,0,28.44,28.45.36.36,0,1,1,0,.72Z"/><path d="M116.05,456.51h-1.61a.36.36,0,0,1-.36-.36V427.32a.36.36,0,0,1,.36-.36h1.61a.37.37,0,0,1,.37.36v28.83A.37.37,0,0,1,116.05,456.51Zm-1.25-.72h.89V427.68h-.89Z"/><path d="M114.47,456.51a.36.36,0,0,1-.36-.36.36.36,0,0,1,.36-.36,28.48,28.48,0,0,0,28.45-28.44.36.36,0,0,1,.36-.36.36.36,0,0,1,.36.36A29.2,29.2,0,0,1,114.47,456.51Z"/><path d="M209.56,476.38H208a.36.36,0,0,1-.36-.36v-24.7A.36.36,0,0,1,208,451h1.61a.36.36,0,0,1,.36.36V476A.36.36,0,0,1,209.56,476.38Zm-1.25-.72h.89v-24h-.89Z"/><path d="M208.27,476.38H208a.36.36,0,0,1-.36-.36.37.37,0,0,1,.36-.36,1.28,1.28,0,0,0,.27,0,28.2,28.2,0,0,0,28.2-28.16.36.36,0,0,1,.36-.35h0a.36.36,0,0,1,.36.36,28.92,28.92,0,0,1-28.92,28.87Z"/><path d="M236.78,388a.36.36,0,0,1-.36-.36A28.48,28.48,0,0,0,208,359.18a.36.36,0,0,1,0-.72,29.2,29.2,0,0,1,29.17,29.17A.36.36,0,0,1,236.78,388Z"/><path d="M266.57,279.28h-32a.36.36,0,0,1-.36-.36v-1.61a.36.36,0,0,1,.36-.36h32a.36.36,0,0,1,.36.36v1.61A.36.36,0,0,1,266.57,279.28Zm-31.65-.72h31.29v-.89H234.92Z"/><path d="M265.81,308.77a31.59,31.59,0,0,1-31.61-31.44.36.36,0,0,1,.36-.36h0a.36.36,0,0,1,.36.35A30.87,30.87,0,0,0,266.59,308h0a.36.36,0,0,1,0,.72Z"/><path d="M268.18,440.18H242.53a.36.36,0,0,1-.36-.36v-1.61a.36.36,0,0,1,.36-.36h25.65a.36.36,0,0,1,.36.36v1.61A.36.36,0,0,1,268.18,440.18Zm-25.29-.72h24.93v-.89H242.89Z"/><path d="M268.18,440.21a.36.36,0,0,1-.36-.36,25.29,25.29,0,0,0-25.27-25.27.36.36,0,0,1,0-.72,26,26,0,0,1,26,26A.36.36,0,0,1,268.18,440.21Z"/><path d="M270.4,277.73h-3.83a.42.42,0,0,1,0-.84h3.83a.42.42,0,1,1,0,.84Z"/><path d="M270.4,308.78h-3.83a.42.42,0,0,1,0-.84h3.83a.42.42,0,1,1,0,.84Z"/><path d="M209.56,388H208a.36.36,0,0,1-.36-.36V358.77a.36.36,0,0,1,.36-.36h1.61a.36.36,0,0,1,.36.36V387.6A.36.36,0,0,1,209.56,388Zm-1.25-.72h.89V359.13h-.89Z"/><path d="M106.78,541.41H48.46a.42.42,0,1,1,0-.84h58.32a.42.42,0,0,1,0,.84Z"/><path d="M192.57,541.41H122.76a.42.42,0,1,1,0-.84h69.81a.42.42,0,1,1,0,.84Z"/><path d="M288.05,541.41H216.32a.42.42,0,1,1,0-.84h71.73a.42.42,0,1,1,0,.84Z"/><path d="M192.57,541.41H122.76a.42.42,0,1,1,0-.84h69.81a.42.42,0,1,1,0,.84Z"/><path d="M106.78,541.41H48.46a.42.42,0,1,1,0-.84h58.32a.42.42,0,0,1,0,.84Z"/><path d="M110.61,137.6h-3.83a.42.42,0,0,1-.42-.42.42.42,0,0,1,.42-.42h3.83a.42.42,0,0,1,.42.42A.42.42,0,0,1,110.61,137.6Z"/><path d="M352.72,545.29H.42a.42.42,0,0,1-.42-.42V541a.42.42,0,0,1,.42-.42.42.42,0,0,1,.42.42v3.46H352.72a.42.42,0,1,1,0,.84Z"/><path d="M.42,545.29a.42.42,0,0,1-.42-.42V541a.42.42,0,0,1,.42-.42H32.48a.42.42,0,0,1,0,.84H.84v3.46A.42.42,0,0,1,.42,545.29Z"/><path d="M106.78,541.41H48.46a.42.42,0,1,1,0-.84h58.32a.42.42,0,0,1,0,.84Z"/><path d="M192.57,541.41H122.76a.42.42,0,1,1,0-.84h69.81a.42.42,0,1,1,0,.84Z"/><path d="M350.8,541.41H204.12a.42.42,0,0,1,0-.84H350.8a.42.42,0,1,1,0,.84Z"/><path d="M200.29,541.41H110.61a.42.42,0,0,1-.42-.42V427.32a.42.42,0,1,1,.84,0V540.57h88.84V427.32a.42.42,0,0,1,.42-.42.42.42,0,0,1,.42.42V541A.42.42,0,0,1,200.29,541.41Z"/><path d="M106.78,541.41H32.48a.42.42,0,1,1,0-.84h74.3a.42.42,0,0,1,0,.84Z"/><path d="M36.31,541.41a.42.42,0,0,1-.42-.42V502.58a.42.42,0,1,1,.84,0V541A.42.42,0,0,1,36.31,541.41Z"/><path d="M.42,545.29a.42.42,0,0,1-.42-.42V541a.42.42,0,0,1,.42-.42H32.06v-38a.42.42,0,1,1,.84,0V541a.42.42,0,0,1-.42.42H.84v3.46A.42.42,0,0,1,.42,545.29Z"/><path d="M110.61,413.58h-3.83a.42.42,0,0,1-.42-.42.42.42,0,0,1,.42-.42h3.83a.42.42,0,0,1,.42.42A.42.42,0,0,1,110.61,413.58Z"/><path d="M110.61,384.79h-3.83a.42.42,0,0,1-.42-.42.42.42,0,0,1,.42-.42h3.83a.42.42,0,0,1,.42.42A.42.42,0,0,1,110.61,384.79Z"/><path d="M270.4,238.26a.42.42,0,0,1-.42-.42V233a.42.42,0,0,1,.42-.42.42.42,0,0,1,.42.42v4.89A.42.42,0,0,1,270.4,238.26Z"/><path d="M270.4,277.73a.42.42,0,0,1-.42-.42v-8.37a.42.42,0,0,1,.42-.42.42.42,0,0,1,.42.42v8.37A.42.42,0,0,1,270.4,277.73Z"/><path d="M270.4,313.72a.42.42,0,0,1-.42-.42v-4.94a.42.42,0,0,1,.42-.42.42.42,0,0,1,.42.42v4.94A.42.42,0,0,1,270.4,313.72Z"/><path d="M266.57,238.26a.42.42,0,0,1-.42-.42V233a.42.42,0,0,1,.84,0v4.89A.42.42,0,0,1,266.57,238.26Z"/><path d="M266.57,271.12a.41.41,0,0,1-.42-.41v-1.77a.42.42,0,0,1,.84,0v1.77A.41.41,0,0,1,266.57,271.12Z"/><path d="M308.86,103.67a.42.42,0,0,1-.42-.42V101a.42.42,0,0,1,.42-.42.42.42,0,0,1,.42.42v2.27A.42.42,0,0,1,308.86,103.67Z"/><path d="M312.69,277.38h-3.83a.42.42,0,0,1-.42-.42.42.42,0,0,1,.42-.42h3.41v-1.2a.42.42,0,0,1,.42-.42.42.42,0,0,1,.42.42V277A.42.42,0,0,1,312.69,277.38Z"/><path d="M110.61,174.09a.42.42,0,0,1-.42-.42V166a.42.42,0,1,1,.84,0v7.66A.42.42,0,0,1,110.61,174.09Z"/><path d="M350.8,541.41a.42.42,0,0,1-.42-.42V469a.42.42,0,0,1,.42-.42.42.42,0,0,1,.42.42v72A.42.42,0,0,1,350.8,541.41Z"/><path d="M266.57,269.3h-32a.36.36,0,0,1-.36-.36v-1.61a.36.36,0,0,1,.36-.36h32a.36.36,0,0,1,.36.36v1.61A.36.36,0,0,1,266.57,269.3Zm-31.65-.72h31.29v-.89H234.92Z"/><path d="M234.56,269.28h0a.36.36,0,0,1-.36-.36,31.59,31.59,0,0,1,32.41-31.43.37.37,0,0,1,.35.37.37.37,0,0,1-.36.35h0a30.87,30.87,0,0,0-31.67,30.71A.36.36,0,0,1,234.56,269.28Z"/><path d="M270.4,269.36h-3.83a.42.42,0,0,1,0-.84h3.83a.42.42,0,1,1,0,.84Z"/><path d="M270.4,238.26h-3.83a.42.42,0,0,1,0-.84h3.83a.42.42,0,1,1,0,.84Z"/><path d="M396.57,469.38H354.63a.42.42,0,1,1,0-.84h41.94a.42.42,0,1,1,0,.84Z"/><path d="M350.8,469.38H308.86a.42.42,0,1,1,0-.84H350.8a.42.42,0,1,1,0,.84Z"/><path d="M392.74,465.55H312.69a.42.42,0,0,1-.42-.42.42.42,0,0,1,.42-.42h80.05a.42.42,0,0,1,.42.42A.42.42,0,0,1,392.74,465.55Z"/><path d="M308.86,469.38a.42.42,0,0,1-.42-.42V447.84a.42.42,0,0,1,.42-.42.41.41,0,0,1,.42.42V469A.42.42,0,0,1,308.86,469.38Z"/><path d="M312.69,465.55a.42.42,0,0,1-.42-.42V444a.42.42,0,0,1,.42-.42.41.41,0,0,1,.42.42v21.17A.42.42,0,0,1,312.69,465.55Z"/><path d="M367.13,365.59a.42.42,0,0,1-.42-.42V313.72h-5.56v48.93a.42.42,0,0,1-.42.42.42.42,0,0,1-.42-.42V313.3a.42.42,0,0,1,.42-.42h6.4a.42.42,0,0,1,.42.42v51.87A.42.42,0,0,1,367.13,365.59Z"/><path d="M392.74,265.23h-4.58a.12.12,0,1,1,0-.24h4.58a.12.12,0,0,1,0,.24Z"/><path d="M386.14,265.23h-4a.12.12,0,1,1,0-.24h4a.12.12,0,0,1,0,.24Z"/><path d="M380.14,265.23h-4a.12.12,0,1,1,0-.24h4a.12.12,0,0,1,0,.24Z"/><path d="M374.14,265.23h-4a.12.12,0,0,1,0-.24h4a.12.12,0,0,1,0,.24Z"/><path d="M368.14,265.23h-4a.12.12,0,0,1,0-.24h4a.12.12,0,0,1,0,.24Z"/><path d="M362.14,265.23h-4.63a.12.12,0,0,1,0-.24h4.63a.12.12,0,0,1,0,.24Z"/><path d="M392.74,256.61h-4.58a.12.12,0,0,1,0-.24h4.58a.12.12,0,0,1,0,.24Z"/><path d="M386.14,256.61h-4a.12.12,0,0,1,0-.24h4a.12.12,0,0,1,0,.24Z"/><path d="M380.14,256.61h-4a.12.12,0,0,1,0-.24h4a.12.12,0,0,1,0,.24Z"/><path d="M374.14,256.61h-4a.12.12,0,0,1,0-.24h4a.12.12,0,0,1,0,.24Z"/><path d="M368.14,256.61h-4a.12.12,0,0,1,0-.24h4a.12.12,0,0,1,0,.24Z"/><path d="M362.14,256.61h-4.63a.12.12,0,0,1,0-.24h4.63a.12.12,0,0,1,0,.24Z"/><path d="M392.74,247.94h-4.58a.12.12,0,0,1,0-.24h4.58a.12.12,0,0,1,0,.24Z"/><path d="M386.14,247.94h-4a.12.12,0,0,1,0-.24h4a.12.12,0,0,1,0,.24Z"/><path d="M380.14,247.94h-4a.12.12,0,0,1,0-.24h4a.12.12,0,0,1,0,.24Z"/><path d="M374.14,247.94h-4a.12.12,0,0,1,0-.24h4a.12.12,0,0,1,0,.24Z"/><path d="M368.14,247.94h-4a.12.12,0,0,1,0-.24h4a.12.12,0,0,1,0,.24Z"/><path d="M362.14,247.94h-4.63a.12.12,0,0,1,0-.24h4.63a.12.12,0,0,1,0,.24Z"/><path d="M392.74,239.27h-4.58a.12.12,0,0,1,0-.24h4.58a.12.12,0,0,1,0,.24Z"/><path d="M386.14,239.27h-4a.12.12,0,0,1,0-.24h4a.12.12,0,0,1,0,.24Z"/><path d="M380.14,239.27h-4a.12.12,0,0,1,0-.24h4a.12.12,0,0,1,0,.24Z"/><path d="M374.14,239.27h-4a.12.12,0,0,1,0-.24h4a.12.12,0,0,1,0,.24Z"/><path d="M368.14,239.27h-4a.12.12,0,0,1,0-.24h4a.12.12,0,0,1,0,.24Z"/><path d="M362.14,239.27h-4.63a.12.12,0,0,1,0-.24h4.63a.12.12,0,0,1,0,.24Z"/><path d="M392.74,230.65h-4.58a.12.12,0,0,1,0-.24h4.58a.12.12,0,0,1,0,.24Z"/><path d="M386.14,230.65h-4a.12.12,0,0,1,0-.24h4a.12.12,0,0,1,0,.24Z"/><path d="M380.14,230.65h-4a.12.12,0,0,1,0-.24h4a.12.12,0,0,1,0,.24Z"/><path d="M374.14,230.65h-4a.12.12,0,0,1,0-.24h4a.12.12,0,0,1,0,.24Z"/><path d="M368.14,230.65h-4a.12.12,0,0,1,0-.24h4a.12.12,0,0,1,0,.24Z"/><path d="M362.14,230.65h-4.63a.12.12,0,0,1,0-.24h4.63a.12.12,0,0,1,0,.24Z"/><path d="M392.74,222h-4.58a.12.12,0,0,1,0-.24h4.58a.12.12,0,1,1,0,.24Z"/><path d="M386.14,222h-4a.12.12,0,0,1,0-.24h4a.12.12,0,1,1,0,.24Z"/><path d="M380.14,222h-4a.12.12,0,0,1,0-.24h4a.12.12,0,1,1,0,.24Z"/><path d="M374.14,222h-4a.12.12,0,0,1,0-.24h4a.12.12,0,1,1,0,.24Z"/><path d="M368.14,222h-4a.12.12,0,0,1,0-.24h4a.12.12,0,1,1,0,.24Z"/><path d="M362.14,222h-4.63a.12.12,0,0,1,0-.24h4.63a.12.12,0,1,1,0,.24Z"/><path d="M392.74,213.36h-4.58a.12.12,0,0,1,0-.24h4.58a.12.12,0,0,1,0,.24Z"/><path d="M386.14,213.36h-4a.12.12,0,0,1,0-.24h4a.12.12,0,0,1,0,.24Z"/><path d="M380.14,213.36h-4a.12.12,0,0,1,0-.24h4a.12.12,0,0,1,0,.24Z"/><path d="M374.14,213.36h-4a.12.12,0,0,1,0-.24h4a.12.12,0,0,1,0,.24Z"/><path d="M368.14,213.36h-4a.12.12,0,0,1,0-.24h4a.12.12,0,0,1,0,.24Z"/><path d="M362.14,213.36h-4.63a.12.12,0,0,1,0-.24h4.63a.12.12,0,0,1,0,.24Z"/><path d="M347.93,268.46h-4.64a.13.13,0,0,1-.12-.12.12.12,0,0,1,.12-.12h4.64a.12.12,0,0,1,.12.12A.12.12,0,0,1,347.93,268.46Z"/><path d="M341.33,268.46h-4a.13.13,0,0,1-.12-.12.12.12,0,0,1,.12-.12h4a.12.12,0,0,1,.12.12A.13.13,0,0,1,341.33,268.46Z"/><path d="M335.33,268.46h-4a.13.13,0,0,1-.12-.12.12.12,0,0,1,.12-.12h4a.12.12,0,0,1,.12.12A.13.13,0,0,1,335.33,268.46Z"/><path d="M329.28,268.46h-4a.12.12,0,0,1-.12-.12.12.12,0,0,1,.12-.12h4a.12.12,0,0,1,.12.12A.12.12,0,0,1,329.28,268.46Z"/><path d="M323.28,268.46h-4a.12.12,0,0,1-.12-.12.12.12,0,0,1,.12-.12h4a.12.12,0,0,1,.12.12A.12.12,0,0,1,323.28,268.46Z"/><path d="M317.28,268.46h-4.59a.13.13,0,0,1-.12-.12.12.12,0,0,1,.12-.12h4.59a.12.12,0,0,1,.12.12A.12.12,0,0,1,317.28,268.46Z"/><path d="M347.93,259.79h-4.64a.13.13,0,0,1-.12-.12.12.12,0,0,1,.12-.12h4.64a.12.12,0,0,1,.12.12A.12.12,0,0,1,347.93,259.79Z"/><path d="M341.33,259.79h-4a.13.13,0,0,1-.12-.12.12.12,0,0,1,.12-.12h4a.12.12,0,0,1,.12.12A.13.13,0,0,1,341.33,259.79Z"/><path d="M335.33,259.79h-4a.13.13,0,0,1-.12-.12.12.12,0,0,1,.12-.12h4a.12.12,0,0,1,.12.12A.13.13,0,0,1,335.33,259.79Z"/><path d="M329.28,259.79h-4a.12.12,0,0,1-.12-.12.12.12,0,0,1,.12-.12h4a.12.12,0,0,1,.12.12A.12.12,0,0,1,329.28,259.79Z"/><path d="M323.28,259.79h-4a.12.12,0,0,1-.12-.12.12.12,0,0,1,.12-.12h4a.12.12,0,0,1,.12.12A.12.12,0,0,1,323.28,259.79Z"/><path d="M317.28,259.79h-4.59a.13.13,0,0,1-.12-.12.12.12,0,0,1,.12-.12h4.59a.12.12,0,0,1,.12.12A.12.12,0,0,1,317.28,259.79Z"/><path d="M347.93,251.17h-4.64a.13.13,0,0,1-.12-.12.12.12,0,0,1,.12-.12h4.64a.12.12,0,0,1,.12.12A.12.12,0,0,1,347.93,251.17Z"/><path d="M341.33,251.17h-4a.13.13,0,0,1-.12-.12.12.12,0,0,1,.12-.12h4a.12.12,0,0,1,.12.12A.13.13,0,0,1,341.33,251.17Z"/><path d="M335.33,251.17h-4a.13.13,0,0,1-.12-.12.12.12,0,0,1,.12-.12h4a.12.12,0,0,1,.12.12A.13.13,0,0,1,335.33,251.17Z"/><path d="M329.28,251.17h-4a.12.12,0,0,1-.12-.12.12.12,0,0,1,.12-.12h4a.12.12,0,0,1,.12.12A.12.12,0,0,1,329.28,251.17Z"/><path d="M323.28,251.17h-4a.12.12,0,0,1-.12-.12.12.12,0,0,1,.12-.12h4a.12.12,0,0,1,.12.12A.12.12,0,0,1,323.28,251.17Z"/><path d="M317.28,251.17h-4.59a.13.13,0,0,1-.12-.12.12.12,0,0,1,.12-.12h4.59a.12.12,0,0,1,.12.12A.12.12,0,0,1,317.28,251.17Z"/><path d="M347.93,242.5h-4.64a.13.13,0,0,1-.12-.12.12.12,0,0,1,.12-.12h4.64a.12.12,0,0,1,.12.12A.12.12,0,0,1,347.93,242.5Z"/><path d="M341.33,242.5h-4a.13.13,0,0,1-.12-.12.12.12,0,0,1,.12-.12h4a.12.12,0,0,1,.12.12A.13.13,0,0,1,341.33,242.5Z"/><path d="M335.33,242.5h-4a.13.13,0,0,1-.12-.12.12.12,0,0,1,.12-.12h4a.12.12,0,0,1,.12.12A.13.13,0,0,1,335.33,242.5Z"/><path d="M329.28,242.5h-4a.12.12,0,0,1-.12-.12.12.12,0,0,1,.12-.12h4a.12.12,0,0,1,.12.12A.12.12,0,0,1,329.28,242.5Z"/><path d="M323.28,242.5h-4a.12.12,0,0,1-.12-.12.12.12,0,0,1,.12-.12h4a.12.12,0,0,1,.12.12A.12.12,0,0,1,323.28,242.5Z"/><path d="M317.28,242.5h-4.59a.13.13,0,0,1-.12-.12.12.12,0,0,1,.12-.12h4.59a.12.12,0,0,1,.12.12A.12.12,0,0,1,317.28,242.5Z"/><path d="M347.93,233.83h-4.64a.13.13,0,0,1-.12-.12.12.12,0,0,1,.12-.12h4.64a.12.12,0,0,1,.12.12A.12.12,0,0,1,347.93,233.83Z"/><path d="M341.33,233.83h-4a.13.13,0,0,1-.12-.12.12.12,0,0,1,.12-.12h4a.12.12,0,0,1,.12.12A.13.13,0,0,1,341.33,233.83Z"/><path d="M335.33,233.83h-4a.13.13,0,0,1-.12-.12.12.12,0,0,1,.12-.12h4a.12.12,0,0,1,.12.12A.13.13,0,0,1,335.33,233.83Z"/><path d="M329.28,233.83h-4a.12.12,0,0,1-.12-.12.12.12,0,0,1,.12-.12h4a.12.12,0,0,1,.12.12A.12.12,0,0,1,329.28,233.83Z"/><path d="M323.28,233.83h-4a.12.12,0,0,1-.12-.12.12.12,0,0,1,.12-.12h4a.12.12,0,0,1,.12.12A.12.12,0,0,1,323.28,233.83Z"/><path d="M317.28,233.83h-4.59a.13.13,0,0,1-.12-.12.12.12,0,0,1,.12-.12h4.59a.12.12,0,0,1,.12.12A.12.12,0,0,1,317.28,233.83Z"/><path d="M347.93,225.21h-4.64a.13.13,0,0,1-.12-.12.12.12,0,0,1,.12-.12h4.64a.12.12,0,0,1,.12.12A.12.12,0,0,1,347.93,225.21Z"/><path d="M341.33,225.21h-4a.13.13,0,0,1-.12-.12.12.12,0,0,1,.12-.12h4a.12.12,0,0,1,.12.12A.13.13,0,0,1,341.33,225.21Z"/><path d="M335.33,225.21h-4a.13.13,0,0,1-.12-.12.12.12,0,0,1,.12-.12h4a.12.12,0,0,1,.12.12A.13.13,0,0,1,335.33,225.21Z"/><path d="M329.28,225.21h-4a.12.12,0,0,1-.12-.12.12.12,0,0,1,.12-.12h4a.12.12,0,0,1,.12.12A.12.12,0,0,1,329.28,225.21Z"/><path d="M323.28,225.21h-4a.12.12,0,0,1-.12-.12.12.12,0,0,1,.12-.12h4a.12.12,0,0,1,.12.12A.12.12,0,0,1,323.28,225.21Z"/><path d="M317.28,225.21h-4.59a.13.13,0,0,1-.12-.12.12.12,0,0,1,.12-.12h4.59a.12.12,0,0,1,.12.12A.12.12,0,0,1,317.28,225.21Z"/><path d="M347.93,216.54h-4.64a.13.13,0,0,1-.12-.12.12.12,0,0,1,.12-.12h4.64a.12.12,0,0,1,.12.12A.12.12,0,0,1,347.93,216.54Z"/><path d="M341.33,216.54h-4a.13.13,0,0,1-.12-.12.12.12,0,0,1,.12-.12h4a.12.12,0,0,1,.12.12A.13.13,0,0,1,341.33,216.54Z"/><path d="M335.33,216.54h-4a.13.13,0,0,1-.12-.12.12.12,0,0,1,.12-.12h4a.12.12,0,0,1,.12.12A.13.13,0,0,1,335.33,216.54Z"/><path d="M329.28,216.54h-4a.12.12,0,0,1-.12-.12.12.12,0,0,1,.12-.12h4a.12.12,0,0,1,.12.12A.12.12,0,0,1,329.28,216.54Z"/><path d="M323.28,216.54h-4a.12.12,0,0,1-.12-.12.12.12,0,0,1,.12-.12h4a.12.12,0,0,1,.12.12A.12.12,0,0,1,323.28,216.54Z"/><path d="M317.28,216.54h-4.59a.13.13,0,0,1-.12-.12.12.12,0,0,1,.12-.12h4.59a.12.12,0,0,1,.12.12A.12.12,0,0,1,317.28,216.54Z"/><path d="M346.82,212a.12.12,0,0,1-.12-.12V208.8a.12.12,0,0,1,.24,0v3.08A.12.12,0,0,1,346.82,212Z"/><path d="M346.82,207a.12.12,0,0,1-.12-.12v-4a.12.12,0,0,1,.24,0v4A.12.12,0,0,1,346.82,207Z"/><path d="M346.82,201a.12.12,0,0,1-.12-.12v-4a.12.12,0,0,1,.24,0v4A.12.12,0,0,1,346.82,201Z"/><path d="M346.82,195a.12.12,0,0,1-.12-.12v-4a.12.12,0,0,1,.24,0v4A.12.12,0,0,1,346.82,195Z"/><path d="M346.82,188.91a.12.12,0,0,1-.12-.12v-4a.12.12,0,0,1,.24,0v4A.12.12,0,0,1,346.82,188.91Z"/><path d="M346.82,182.91a.12.12,0,0,1-.12-.12v-3a.12.12,0,0,1,.24,0v3A.12.12,0,0,1,346.82,182.91Z"/><path d="M208,388h-3.83a.42.42,0,0,1,0-.84H208a.42.42,0,0,1,0,.84Z"/><path d="M669.13,372a.42.42,0,0,1-.42-.42v-198a.42.42,0,0,1,.42-.42.42.42,0,0,1,.42.42v198A.42.42,0,0,1,669.13,372Z"/><path d="M470.87,267.94h-32a.37.37,0,0,1-.37-.36V266a.37.37,0,0,1,.37-.36h32a.36.36,0,0,1,.36.36v1.61A.36.36,0,0,1,470.87,267.94Zm-31.64-.72h31.28v-.89H439.23Z"/><path d="M470.92,268a.36.36,0,0,1-.36-.36A30.86,30.86,0,0,0,438.9,236.9a.33.33,0,0,1-.37-.35.35.35,0,0,1,.35-.37,31.57,31.57,0,0,1,32.4,31.43A.36.36,0,0,1,470.92,268Z"/><path d="M438.87,268H435a.42.42,0,1,1,0-.84h3.84a.42.42,0,1,1,0,.84Z"/><path d="M438.87,237H435a.42.42,0,0,1,0-.84h3.84a.42.42,0,0,1,0,.84Z"/><path d="M367.13,365.59a.42.42,0,0,1-.42-.42V339.56a.42.42,0,0,1,.42-.42h25.61a.42.42,0,1,1,0,.84H367.55v25.19A.42.42,0,0,1,367.13,365.59Z"/><path d="M392.74,336.15H367.13a.42.42,0,0,1,0-.84h25.61a.42.42,0,1,1,0,.84Z"/><path d="M367.13,369.47a.42.42,0,0,1-.42-.42v-3.88a.42.42,0,0,1,.42-.42.42.42,0,0,1,.42.42v3.88A.42.42,0,0,1,367.13,369.47Z"/><path d="M312.69,369.47h-3.83a.42.42,0,1,1,0-.84h3.83a.42.42,0,0,1,0,.84Z"/></g></g></svg>