<svg xmlns="http://www.w3.org/2000/svg" viewBox="0 0 42.33 45.29"><defs><style>.cls-1{fill:#e81746;}.cls-2{fill:#2e62ac;}</style></defs><g id="Layer_2" data-name="Layer 2"><g id="Layer_1-2" data-name="Layer 1"><path class="cls-1" d="M30.58,0A11.76,11.76,0,1,0,42.33,11.76,11.75,11.75,0,0,0,30.58,0Zm1.63,18.74H30V9.85c0-1.06,0-1.9.08-2.53a6.63,6.63,0,0,1-.53.5L27.42,9.56,26.31,8.15,30.36,5h1.85Z"/><path class="cls-2" d="M33.85,35.61h-.49c-.64-.43-1.35-4.28-1.78-6.61l0-.11-.41-2.18a.88.88,0,1,0-1.72.34l.41,2.15,0,.11a33.82,33.82,0,0,0,1.5,6.3H3.74a32.91,32.91,0,0,0,1.51-6.3C6.56,22.2,8.36,12.45,15,12.45a.88.88,0,1,0,0-1.75C6.9,10.7,5,21.28,3.53,29c-.43,2.33-1.14,6.19-1.78,6.61H.88a.88.88,0,1,0,0,1.75h9.74a6.62,6.62,0,0,0-.09,1.1,6.84,6.84,0,0,0,13.67,0,8,8,0,0,0-.09-1.1h9.74a.88.88,0,1,0,0-1.75Zm-11.4,2.85a5.09,5.09,0,0,1-10.17,0,5,5,0,0,1,.13-1.1h9.9A5,5,0,0,1,22.45,38.46Z"/></g></g></svg>