<svg xmlns="http://www.w3.org/2000/svg" viewBox="0 0 72.22 72.22"><defs><style>.cls-1{fill:#e6e6e6;}.cls-2{fill:#545454;}</style></defs><g id="Layer_2" data-name="Layer 2"><g id="Layer_1-2" data-name="Layer 1"><rect class="cls-1" width="72.22" height="72.22" transform="translate(72.22 72.22) rotate(180)"/><path class="cls-2" d="M28,29.61h1.77V27.4a7.39,7.39,0,1,1,14.78,0v2.21h1.77a2.52,2.52,0,0,1,2.51,2.51V46.5A2.53,2.53,0,0,1,46.36,49H28A2.54,2.54,0,0,1,25.5,46.5V32.12A2.53,2.53,0,0,1,28,29.61ZM41.25,27.4a4.05,4.05,0,0,0-8.1,0v2.21h8.1Zm-5.42,15v3.68a.27.27,0,0,0,.29.26h1.76a.27.27,0,0,0,.27-.26V42.38a3.23,3.23,0,1,0-2.32,0Z"/></g></g></svg>